<svg xmlns="http://www.w3.org/2000/svg" id="canvas" viewBox="241.956 194.643 508.027 120.231"><path d="M 332.29,201.05 C 331.84 200.05, 331.12 199.36, 329.32 198.70 C 327.52 198.03, 326.13 197.41, 323.30 197.73 C 320.48 198.05, 318.69 198.66, 315.19 200.30 C 311.68 201.94, 309.91 203.11, 305.78 205.94 C 301.64 208.76, 299.29 210.41, 294.51 214.42 C 289.73 218.43, 286.94 220.78, 281.86 225.97 C 276.79 231.16, 273.91 234.29, 269.13 240.37 C 264.35 246.45, 261.83 249.97, 257.95 256.38 C 254.07 262.79, 252.23 266.32, 249.74 272.43 C 247.25 278.55, 246.27 281.67, 245.50 286.97 C 244.73 292.28, 244.71 294.85, 245.88 298.97 C 247.04 303.09, 248.25 305.05, 251.34 307.56 C 254.42 310.07, 256.72 310.81, 261.29 311.50 C 265.86 312.18, 268.67 311.89, 274.18 310.98 C 279.68 310.07, 282.73 309.08, 288.84 306.94 C 294.95 304.80, 298.35 303.27, 304.72 300.28 C 311.09 297.28, 314.59 295.40, 320.68 291.97 C 326.77 288.54, 329.80 286.54, 335.17 283.15 C 340.55 279.75, 343.16 277.94, 347.55 274.98 C 351.94 272.03, 354.00 270.68, 357.12 268.38 C 360.24 266.07, 361.59 265.24, 363.14 263.44 C 364.69 261.65, 364.89 260.79, 364.88 259.41 C 364.88 258.03, 364.33 257.30, 363.12 256.55 C 361.91 255.79, 360.73 255.38, 358.84 255.64 C 356.95 255.90, 355.77 256.46, 353.68 257.84 C 351.58 259.21, 350.57 260.27, 348.38 262.50 C 346.19 264.73, 345.05 266.17, 342.71 268.98 C 340.37 271.78, 338.99 273.41, 336.66 276.53 C 334.34 279.65, 333.07 281.41, 331.09 284.57 C 329.11 287.72, 327.90 289.33, 326.74 292.29 C 325.58 295.26, 325.23 296.86, 325.31 299.38 C 325.39 301.90, 325.80 303.20, 327.14 304.89 C 328.48 306.58, 329.66 307.34, 331.99 307.84 C 334.31 308.33, 335.96 308.36, 338.76 307.34 C 341.57 306.33, 343.02 305.03, 346.01 302.74 C 348.99 300.45, 350.57 298.90, 353.69 295.87 C 356.81 292.85, 358.52 291.01, 361.62 287.61 C 364.71 284.21, 366.36 282.22, 369.18 278.88 C 371.99 275.53, 373.89 273.73, 375.69 270.87 C 377.50 268.02, 378.15 266.39, 378.21 264.60 C 378.26 262.82, 377.40 262.04, 375.96 261.93 C 374.53 261.83, 372.92 262.27, 371.04 264.08 C 369.15 265.89, 368.07 267.86, 366.55 270.98 C 365.02 274.10, 364.26 276.33, 363.42 279.69 C 362.58 283.04, 362.14 284.88, 362.35 287.76 C 362.56 290.64, 363.07 292.08, 364.48 294.09 C 365.90 296.11, 366.98 297.00, 369.42 297.84 C 371.85 298.69, 373.58 298.97, 376.66 298.30 C 379.75 297.63, 381.38 296.44, 384.83 294.50 C 388.29 292.55, 390.16 291.18, 393.92 288.58 C 397.67 285.98, 399.80 284.30, 403.61 281.52 C 407.41 278.74, 409.50 277.06, 412.95 274.68 C 416.39 272.30, 418.60 271.32, 420.84 269.60 C 423.08 267.89, 423.70 266.86, 424.13 266.10 C 424.57 265.35, 424.00 265.21, 423.02 265.84 C 422.04 266.48, 420.78 267.21, 419.23 269.26 C 417.69 271.30, 416.92 273.25, 415.31 276.08 C 413.69 278.91, 412.45 280.66, 411.16 283.41 C 409.88 286.17, 409.15 287.63, 408.88 289.85 C 408.61 292.07, 408.79 293.25, 409.82 294.52 C 410.85 295.79, 411.94 296.36, 414.01 296.21 C 416.08 296.06, 417.52 295.51, 420.19 293.75 C 422.85 292.00, 424.18 290.14, 427.34 287.45 C 430.49 284.76, 432.43 283.02, 435.97 280.31 C 439.50 277.60, 441.60 276.03, 445.02 273.89 C 448.44 271.76, 450.67 271.04, 453.08 269.62 C 455.48 268.20, 456.28 267.40, 457.02 266.79 C 457.77 266.18, 457.48 266.06, 456.81 266.56 C 456.14 267.06, 455.11 267.63, 453.67 269.31 C 452.22 270.99, 451.10 272.48, 449.60 274.95 C 448.09 277.42, 447.03 279.11, 446.13 281.67 C 445.24 284.24, 444.88 285.73, 445.13 287.78 C 445.37 289.82, 445.85 290.89, 447.36 291.91 C 448.86 292.92, 450.21 293.34, 452.65 292.85 C 455.10 292.36, 456.58 291.31, 459.59 289.45 C 462.60 287.59, 464.28 285.93, 467.72 283.53 C 471.16 281.13, 473.27 279.63, 476.80 277.45 C 480.33 275.28, 482.58 274.21, 485.35 272.66 C 488.12 271.10, 489.35 270.43, 490.65 269.66 C 491.95 268.89, 492.03 268.58, 491.87 268.81 C 491.72 269.04, 490.94 269.41, 489.88 270.80 C 488.83 272.20, 487.71 273.41, 486.59 275.78 C 485.48 278.15, 484.86 279.89, 484.30 282.65 C 483.74 285.41, 483.49 287.03, 483.79 289.58 C 484.09 292.13, 484.41 293.51, 485.80 295.40 C 487.19 297.30, 488.28 298.23, 490.73 299.07 C 493.17 299.90, 494.85 300.14, 498.03 299.60 C 501.21 299.05, 502.98 298.01, 506.63 296.34 C 510.28 294.66, 512.34 293.54, 516.29 291.23 C 520.23 288.92, 522.46 287.47, 526.36 284.78 C 530.26 282.10, 532.37 280.51, 535.79 277.80 C 539.22 275.09, 541.02 273.76, 543.49 271.23 C 545.96 268.69, 547.14 267.43, 548.14 265.13 C 549.13 262.83, 549.13 261.48, 548.46 259.72 C 547.79 257.97, 546.81 257.01, 544.80 256.36 C 542.79 255.72, 541.07 255.57, 538.41 256.50 C 535.75 257.42, 534.22 258.70, 531.48 260.99 C 528.74 263.27, 527.28 264.98, 524.72 267.92 C 522.15 270.87, 520.68 272.57, 518.66 275.71 C 516.64 278.85, 515.41 280.54, 514.62 283.61 C 513.84 286.67, 513.92 288.44, 514.74 291.04 C 515.56 293.65, 516.47 294.99, 518.73 296.63 C 520.99 298.27, 522.71 298.99, 526.06 299.24 C 529.41 299.49, 531.48 298.88, 535.49 297.88 C 539.51 296.89, 541.78 296.00, 546.13 294.26 C 550.49 292.53, 552.90 291.36, 557.26 289.22 C 561.62 287.08, 563.96 285.73, 567.94 283.57 C 571.92 281.40, 574.01 280.24, 577.16 278.38 C 580.32 276.52, 582.07 275.68, 583.73 274.25 C 585.40 272.81, 585.60 271.83, 585.50 271.21 C 585.40 270.59, 584.54 270.54, 583.22 271.14 C 581.91 271.75, 580.64 272.50, 578.91 274.23 C 577.18 275.96, 576.05 277.48, 574.57 279.79 C 573.10 282.10, 572.23 283.63, 571.54 285.77 C 570.84 287.90, 570.72 289.04, 571.11 290.48 C 571.51 291.91, 572.12 292.58, 573.51 292.93 C 574.90 293.29, 576.09 293.26, 578.07 292.23 C 580.05 291.20, 581.12 289.99, 583.41 287.80 C 585.70 285.62, 586.83 283.83, 589.50 281.30 C 592.17 278.78, 593.83 277.39, 596.77 275.18 C 599.72 272.97, 601.36 271.87, 604.24 270.24 C 607.11 268.61, 608.59 268.01, 611.15 267.03 C 613.72 266.04, 614.82 265.73, 617.07 265.32 C 619.31 264.91, 620.25 264.93, 622.36 265.00 C 624.48 265.06, 625.41 265.34, 627.62 265.66 C 629.84 265.98, 630.96 266.30, 633.42 266.58 C 635.87 266.86, 637.21 267.04, 639.89 267.07 C 642.57 267.11, 644.03 267.04, 646.81 266.76 C 649.59 266.48, 651.14 266.26, 653.79 265.67 C 656.44 265.09, 657.92 264.71, 660.05 263.83 C 662.19 262.95, 663.27 262.47, 664.47 261.26 C 665.68 260.06, 666.14 259.17, 666.07 257.81 C 666.01 256.46, 665.55 255.37, 664.15 254.50 C 662.74 253.63, 661.50 253.11, 659.05 253.46 C 656.60 253.80, 655.01 254.61, 651.90 256.22 C 648.78 257.84, 646.96 259.12, 643.47 261.52 C 639.99 263.93, 637.93 265.44, 634.47 268.24 C 631.00 271.04, 629.07 272.69, 626.14 275.53 C 623.21 278.37, 621.52 279.72, 619.80 282.43 C 618.08 285.15, 617.62 286.74, 617.55 289.09 C 617.49 291.44, 618.01 292.67, 619.49 294.18 C 620.96 295.69, 622.34 296.46, 624.95 296.65 C 627.55 296.83, 629.32 296.38, 632.52 295.11 C 635.73 293.84, 637.45 292.51, 640.97 290.29 C 644.48 288.07, 646.46 286.64, 650.12 284.03 C 653.78 281.42, 655.84 279.79, 659.26 277.24 C 662.68 274.70, 664.99 273.46, 667.23 271.30 C 669.46 269.14, 670.14 267.75, 670.43 266.44 C 670.73 265.12, 670.02 264.57, 668.71 264.71 C 667.40 264.85, 665.79 265.34, 663.89 267.15 C 662.00 268.97, 660.73 270.86, 659.22 273.79 C 657.72 276.72, 656.89 278.76, 656.37 281.81 C 655.85 284.85, 655.83 286.53, 656.61 289.01 C 657.38 291.49, 658.12 292.74, 660.23 294.19 C 662.35 295.65, 663.99 296.40, 667.18 296.28 C 670.38 296.15, 672.28 295.14, 676.21 293.56 C 680.15 291.99, 682.34 290.79, 686.85 288.41 C 691.37 286.02, 693.95 284.44, 698.80 281.65 C 703.66 278.86, 706.37 277.16, 711.12 274.44 C 715.87 271.71, 718.37 270.20, 722.56 268.02 C 726.74 265.85, 728.88 264.91, 732.05 263.57 C 735.22 262.22, 736.57 261.87, 738.41 261.29 C 740.25 260.71, 740.66 260.49, 741.24 260.65 C 741.82 260.81, 741.56 261.11, 741.30 262.08 C 741.05 263.05, 740.60 263.79, 739.96 265.49 C 739.32 267.20, 738.98 268.35, 738.11 270.60 C 737.23 272.85, 736.79 274.28, 735.59 276.77 C 734.39 279.25, 733.64 280.66, 732.10 283.03 C 730.56 285.41, 729.62 286.57, 727.88 288.66 C 726.14 290.75, 725.16 291.73, 723.38 293.47 C 721.60 295.22, 720.73 296.08, 718.99 297.37 C 717.25 298.66, 716.37 299.08, 714.69 299.93 C 713.01 300.78, 711.95 301.06, 710.59 301.62 C 709.23 302.18, 708.72 302.29, 707.89 302.72 C 707.06 303.16, 706.87 303.42, 706.44 303.79 C 706.01 304.17, 705.98 304.15, 705.77 304.58 C 705.55 305.00, 705.27 305.41, 705.38 305.93 C 705.49 306.45, 705.65 306.77, 706.34 307.18 C 707.02 307.58, 707.57 307.87, 708.80 307.95 C 710.04 308.02, 710.75 308.00, 712.50 307.55 C 714.26 307.11, 715.53 306.73, 717.58 305.72 C 719.63 304.71, 720.68 304.01, 722.75 302.51 C 724.82 301.01, 725.88 300.14, 727.93 298.23 C 729.97 296.32, 731.02 295.24, 732.97 292.95 C 734.91 290.66, 735.86 289.34, 737.65 286.78 C 739.45 284.22, 740.39 282.82, 741.93 280.14 C 743.48 277.46, 744.38 276.04, 745.38 273.37 C 746.38 270.70, 746.80 269.25, 746.94 266.80 C 747.08 264.34, 746.90 263.00, 746.07 261.12 C 745.23 259.23, 744.51 258.30, 742.77 257.37 C 741.03 256.45, 739.90 256.12, 737.37 256.50 C 734.83 256.87, 733.43 257.63, 730.09 259.24 C 726.74 260.85, 724.81 262.13, 720.65 264.53 C 716.48 266.92, 714.00 268.46, 709.26 271.22 C 704.52 273.97, 701.79 275.65, 696.93 278.30 C 692.06 280.95, 689.42 282.44, 684.93 284.47 C 680.43 286.51, 678.10 287.42, 674.45 288.47 C 670.80 289.52, 669.04 289.40, 666.66 289.73 C 664.28 290.05, 663.56 290.39, 662.54 290.08 C 661.52 289.78, 661.40 289.41, 661.58 288.21 C 661.76 287.00, 662.34 286.09, 663.43 284.05 C 664.52 282.01, 665.61 280.51, 667.04 278.00 C 668.46 275.48, 669.76 273.86, 670.57 271.46 C 671.39 269.07, 671.53 267.54, 671.13 266.04 C 670.72 264.54, 670.14 263.86, 668.55 263.97 C 666.97 264.08, 665.70 264.74, 663.22 266.61 C 660.74 268.48, 659.33 270.63, 656.15 273.31 C 652.97 275.99, 650.91 277.58, 647.32 280.00 C 643.74 282.43, 641.67 283.71, 638.22 285.46 C 634.76 287.21, 632.81 287.72, 630.06 288.75 C 627.31 289.78, 626.12 290.10, 624.48 290.61 C 622.84 291.13, 622.38 291.47, 621.87 291.32 C 621.37 291.18, 621.39 291.00, 621.95 289.88 C 622.51 288.76, 623.12 287.88, 624.68 285.73 C 626.24 283.58, 627.19 281.84, 629.77 279.13 C 632.34 276.41, 634.24 274.73, 637.56 272.15 C 640.89 269.58, 642.94 268.13, 646.39 266.25 C 649.84 264.37, 651.90 263.84, 654.82 262.75 C 657.73 261.67, 659.16 261.60, 660.97 260.83 C 662.78 260.07, 663.24 259.67, 663.88 258.93 C 664.51 258.18, 664.53 257.61, 664.15 257.10 C 663.77 256.59, 663.23 256.34, 661.98 256.39 C 660.73 256.44, 659.85 256.89, 657.91 257.35 C 655.98 257.81, 654.69 258.22, 652.32 258.69 C 649.94 259.17, 648.53 259.44, 646.05 259.73 C 643.56 260.02, 642.29 260.12, 639.89 260.16 C 637.49 260.20, 636.35 260.08, 634.03 259.92 C 631.72 259.76, 630.64 259.55, 628.32 259.37 C 625.99 259.19, 624.89 258.99, 622.42 259.01 C 619.96 259.04, 618.69 258.99, 615.99 259.49 C 613.30 259.99, 611.86 260.32, 608.95 261.52 C 606.04 262.72, 604.54 263.65, 601.46 265.49 C 598.38 267.33, 596.73 268.52, 593.56 270.74 C 590.38 272.96, 588.67 274.36, 585.60 276.59 C 582.53 278.83, 580.66 279.88, 578.19 281.90 C 575.72 283.92, 574.46 284.95, 573.26 286.68 C 572.05 288.42, 572.01 289.54, 572.18 290.57 C 572.36 291.61, 573.01 292.00, 574.13 291.86 C 575.25 291.73, 576.16 291.24, 577.77 289.89 C 579.39 288.54, 580.56 287.28, 582.21 285.10 C 583.86 282.91, 584.99 281.36, 586.01 278.97 C 587.03 276.59, 587.39 275.07, 587.31 273.18 C 587.23 271.29, 586.89 270.23, 585.62 269.52 C 584.36 268.82, 583.22 268.75, 580.99 269.65 C 578.75 270.56, 577.49 272.02, 574.45 274.03 C 571.40 276.05, 569.57 277.46, 565.76 279.72 C 561.94 281.97, 559.62 283.28, 555.37 285.31 C 551.12 287.33, 548.69 288.41, 544.49 289.85 C 540.29 291.29, 537.99 291.92, 534.37 292.52 C 530.75 293.13, 528.99 292.94, 526.41 292.87 C 523.84 292.79, 522.88 292.75, 521.51 292.14 C 520.13 291.53, 519.73 291.16, 519.53 289.81 C 519.33 288.46, 519.69 287.58, 520.50 285.40 C 521.32 283.22, 521.88 281.57, 523.61 278.90 C 525.34 276.22, 526.71 274.49, 529.15 272.02 C 531.59 269.54, 533.33 268.29, 535.80 266.51 C 538.26 264.73, 539.71 264.25, 541.48 263.12 C 543.25 261.99, 543.86 261.41, 544.63 260.87 C 545.41 260.33, 545.56 260.09, 545.36 260.42 C 545.17 260.76, 544.81 261.13, 543.66 262.56 C 542.51 263.99, 541.79 265.22, 539.63 267.55 C 537.46 269.88, 536.01 271.52, 532.85 274.22 C 529.69 276.93, 527.60 278.51, 523.82 281.06 C 520.04 283.62, 517.81 284.99, 513.95 286.98 C 510.09 288.98, 507.95 289.87, 504.51 291.03 C 501.08 292.19, 499.28 292.27, 496.77 292.78 C 494.25 293.29, 493.34 293.59, 491.95 293.58 C 490.56 293.56, 490.22 293.47, 489.83 292.70 C 489.43 291.94, 489.56 291.32, 489.99 289.77 C 490.41 288.22, 491.02 287.12, 491.94 284.94 C 492.86 282.76, 493.81 281.38, 494.58 278.86 C 495.35 276.35, 495.87 274.70, 495.80 272.38 C 495.73 270.06, 495.48 268.70, 494.24 267.27 C 493.01 265.84, 491.96 265.16, 489.64 265.22 C 487.32 265.27, 485.77 265.98, 482.65 267.54 C 479.52 269.09, 477.63 270.75, 474.03 273.01 C 470.44 275.26, 468.28 276.69, 464.69 278.80 C 461.10 280.90, 458.97 281.89, 456.08 283.52 C 453.18 285.15, 451.76 285.81, 450.22 286.96 C 448.68 288.12, 448.47 288.92, 448.36 289.31 C 448.26 289.70, 448.76 289.71, 449.71 288.93 C 450.67 288.15, 451.63 287.32, 453.13 285.41 C 454.63 283.50, 455.77 281.95, 457.20 279.37 C 458.63 276.78, 459.68 275.05, 460.28 272.49 C 460.88 269.92, 460.88 268.35, 460.19 266.53 C 459.49 264.70, 458.77 263.79, 456.81 263.35 C 454.85 262.91, 453.30 263.05, 450.39 264.32 C 447.48 265.59, 445.74 267.30, 442.26 269.70 C 438.79 272.10, 436.71 273.69, 433.02 276.31 C 429.33 278.92, 427.20 280.49, 423.79 282.78 C 420.38 285.06, 418.32 285.96, 415.96 287.75 C 413.60 289.54, 412.82 290.56, 411.98 291.72 C 411.14 292.88, 411.34 293.49, 411.76 293.55 C 412.19 293.61, 412.91 293.31, 414.10 292.02 C 415.29 290.72, 416.10 289.47, 417.70 287.08 C 419.30 284.68, 420.41 282.89, 422.10 280.04 C 423.80 277.19, 425.29 275.52, 426.18 272.81 C 427.07 270.11, 427.07 268.41, 426.57 266.51 C 426.06 264.61, 425.43 263.68, 423.65 263.31 C 421.86 262.95, 420.36 263.17, 417.64 264.67 C 414.93 266.17, 413.42 268.17, 410.08 270.81 C 406.74 273.44, 404.70 275.12, 400.94 277.86 C 397.17 280.59, 394.98 282.19, 391.24 284.49 C 387.51 286.79, 385.49 287.93, 382.25 289.36 C 379.00 290.78, 377.34 290.95, 375.00 291.63 C 372.67 292.31, 371.87 292.75, 370.57 292.75 C 369.26 292.75, 368.91 292.59, 368.49 291.63 C 368.08 290.67, 368.15 289.89, 368.49 287.93 C 368.83 285.97, 369.14 284.50, 370.20 281.82 C 371.27 279.15, 372.44 277.32, 373.81 274.54 C 375.18 271.75, 376.37 270.14, 377.06 267.90 C 377.74 265.66, 377.66 264.34, 377.22 263.35 C 376.79 262.35, 376.15 262.08, 374.87 262.93 C 373.60 263.77, 372.75 265.00, 370.86 267.59 C 368.97 270.19, 367.96 272.52, 365.43 275.89 C 362.90 279.26, 361.24 281.21, 358.20 284.45 C 355.17 287.69, 353.39 289.43, 350.25 292.07 C 347.11 294.72, 345.33 295.93, 342.50 297.67 C 339.66 299.41, 338.10 299.79, 336.05 300.77 C 334.00 301.76, 333.34 302.26, 332.24 302.59 C 331.13 302.91, 330.84 302.96, 330.52 302.41 C 330.20 301.85, 330.25 301.35, 330.65 299.79 C 331.04 298.24, 331.45 297.10, 332.50 294.63 C 333.55 292.17, 334.16 290.42, 335.88 287.48 C 337.60 284.53, 338.83 282.80, 341.09 279.92 C 343.35 277.04, 344.75 275.49, 347.19 273.09 C 349.62 270.70, 351.06 269.67, 353.27 267.95 C 355.48 266.22, 356.57 265.69, 358.24 264.47 C 359.91 263.26, 360.66 262.87, 361.61 261.87 C 362.56 260.87, 362.80 260.16, 362.99 259.46 C 363.18 258.77, 363.20 258.30, 362.55 258.40 C 361.91 258.51, 361.38 258.67, 359.75 259.99 C 358.13 261.30, 357.26 262.55, 354.42 265.00 C 351.59 267.44, 349.75 269.07, 345.57 272.19 C 341.40 275.31, 338.81 277.16, 333.54 280.62 C 328.28 284.07, 325.28 286.07, 319.27 289.46 C 313.25 292.85, 309.77 294.70, 303.47 297.58 C 297.17 300.46, 293.76 301.90, 287.79 303.84 C 281.82 305.78, 278.79 306.57, 273.61 307.29 C 268.43 308.01, 265.84 308.02, 261.90 307.43 C 257.96 306.84, 256.38 306.23, 253.90 304.33 C 251.41 302.42, 250.52 301.30, 249.48 297.91 C 248.45 294.52, 248.15 292.29, 248.73 287.40 C 249.31 282.52, 250.09 279.42, 252.39 273.49 C 254.69 267.56, 256.47 264.04, 260.24 257.76 C 264.01 251.47, 266.50 247.99, 271.24 242.05 C 275.99 236.11, 278.86 233.04, 283.95 228.05 C 289.03 223.07, 291.85 220.80, 296.67 217.12 C 301.49 213.43, 303.93 211.90, 308.06 209.62 C 312.18 207.35, 314.06 206.67, 317.27 205.74 C 320.48 204.80, 321.85 205.20, 324.12 204.95 C 326.38 204.70, 327.10 204.74, 328.59 204.48 C 330.09 204.23, 330.87 204.37, 331.61 203.69 C 332.35 203.00, 332.75 202.05, 332.29 201.05" style="stroke: black; fill: black;"/></svg>