<svg viewBox="0 0 700.7 142.7" xmlns="http://www.w3.org/2000/svg"><g stroke="#fff"><g fill="#fff"><path d="m160.4 13.6c-.4.3-.4.7-.8 1.8s-.6 1.8-1.1 3.6c-.5 1.9-.8 3.1-1.5 5.6-.7 2.6-1 4.2-2 7.2-.9 3-1.5 4.8-2.7 8-1.2 3.3-1.9 5-3.2 8.3s-2 5-3.3 8c-1.2 3-2 4.5-3 7s-1.4 3.7-2.1 5.3c-.6 1.7-.9 2.2-1.2 3.1s-.2 1.1-.2 1.3-.1 0 0 .2.2.4.5.2.6-.2 1.1-1 .9-1.3 1.7-2.9 1.3-2.8 2.3-5.2c1-2.5 1.6-4 2.8-7s1.9-4.8 3.2-8.1 2.1-5 3.3-8.3 1.9-5 3-8 1.7-4.6 2.5-7.2 1.1-3.9 1.4-5.8c.4-1.9.3-2.7.4-3.9s0-1.6-.3-2c-.2-.4-.5-.5-.9-.1"/><path d="m136.4 11.5c.4.1.6 0 1.4 0 .8-.1 1.3-.2 2.8-.5s2.4-.5 4.6-.9 3.6-.6 6.4-1c2.8-.5 4.4-.8 7.6-1.3s5-.8 8.4-1.2 5.2-.7 8.5-1 5.1-.5 8.1-.8c3.1-.3 4.6-.3 7.1-.6 2.6-.2 3.8-.3 5.8-.4 2-.2 2.9-.2 4.2-.4s1.9-.2 2.4-.4.5-.5 0-.7-1.1-.4-2.4-.5c-1.4-.1-2.3-.2-4.3-.2s-3.2.1-5.8.3-4.1.3-7.2.7c-3.1.3-4.8.5-8.1.8s-5.2.6-8.6 1-5.2.6-8.4 1-4.9.5-7.7.9-4.2.5-6.5.9c-2.2.4-3.2.7-4.7 1.1-1.5.5-2 .8-2.8 1.3s-.9.7-1.1 1.1c-.1.4 0 .6.4.8"/><path d="m185 44.7c0 .2 0 .4.3.6s.6.4 1.4.3c.7-.1 1.2-.3 2.4-.9s2-1 3.5-2 2.5-1.6 4.2-2.8 2.6-2 4.3-3.4c1.6-1.4 2.5-2.1 3.9-3.5s2.2-2.1 3.2-3.4 1.4-2 1.8-3.1.4-1.8 0-2.5c-.4-.8-.9-1.2-2.1-1.4-1.1-.2-2-.1-3.6.5-1.7.6-2.7 1.2-4.7 2.6s-3.1 2.4-5.2 4.3-3.2 3.2-5.1 5.4-2.8 3.5-4.2 5.7c-1.3 2.2-1.9 3.4-2.5 5.4s-.7 3-.6 4.6.5 2.4 1.5 3.5 1.7 1.5 3.4 2 2.7.5 4.8.2 3.3-.5 5.7-1.3 3.7-1.4 6.2-2.6 3.9-2 6.3-3.6c2.4-1.5 3.7-2.5 6-4.2 2.2-1.7 3.4-2.7 5.2-4.4s2.7-2.6 4-4.3c1.3-1.6 1.8-2.4 2.5-3.8s.9-2.1.9-3.2-.3-1.7-1-2.3-1.3-1-2.6-1-2.1.1-3.7.8-2.6 1.3-4.4 2.6-2.9 2.3-4.6 4.1-2.7 2.9-4.1 4.9-2.1 3.1-3 5c-.8 1.9-1.1 3-1.2 4.6-.1 1.7 0 2.5.7 3.8s1.2 1.9 2.6 2.6 2.3.9 4.2.9 3.1-.2 5.4-.8 3.6-1.2 6.1-2.3c2.5-1.2 3.9-2 6.4-3.6 2.5-1.5 3.9-2.5 6.3-4.2s3.6-2.7 5.7-4.3 3.2-2.5 4.8-3.9 2.3-2.2 3.2-3.1 1.1-1 1.3-1.4.2-.5-.3-.5c-.4 0-.8 0-2 .6-1.1.6-2 1.3-3.7 2.5s-2.7 2.2-4.8 3.8-3.3 2.6-5.6 4.2c-2.4 1.6-3.7 2.5-6.2 4s-3.9 2.2-6.3 3.3-3.6 1.6-5.7 2.2-3.1.8-4.7 1-2.3 0-3.3-.3c-1-.4-1.4-.7-1.8-1.5s-.5-1.4-.3-2.8.5-2.2 1.4-3.8 1.6-2.7 2.9-4.4c1.4-1.8 2.4-2.8 4-4.5 1.7-1.6 2.7-2.5 4.3-3.7s2.5-1.7 3.8-2.5c1.3-.7 1.9-.9 2.8-1.1s1.1-.2 1.5 0 .4.4.3 1.1-.3 1.2-1 2.3-1.2 1.9-2.5 3.3c-1.3 1.5-2.1 2.3-3.9 3.9s-2.9 2.5-5.1 4.1-3.4 2.5-5.8 4-3.7 2.2-6.1 3.3c-2.4 1.2-3.7 1.7-5.9 2.4-2.2.8-3.3 1-5.2 1.3s-2.7.4-4.1.2c-1.3-.2-1.9-.3-2.6-1s-.9-1.2-.9-2.4.1-2 .8-3.8 1.2-2.8 2.6-4.8 2.3-3.2 4.1-5.3 3-3.2 5-5 3.2-2.7 5-4 2.7-1.8 4-2.5 1.9-.9 2.6-1c.7-.2.9-.2 1 0 0 .3 0 .5-.5 1.2s-.9 1.3-1.9 2.4-1.7 1.8-3.1 3c-1.4 1.3-2.3 2-3.9 3.3s-2.6 2-4.2 3.1c-1.7 1.1-2.6 1.7-4.1 2.6s-2.2 1.2-3.3 1.8-1.4.7-2 1.1-.5.5-.6.8.1.3 0 .5c0 .2-.2.1-.2.3"/><path d="m245.5 36.1c-.6.3-1.3 1-2.4 2.1s-1.9 2-3 3.5-2 2.6-2.9 4.2c-.9 1.5-1.4 2.3-1.8 3.5-.5 1.2-.6 1.7-.5 2.3.1.7.4 1 1.1 1s1.2-.2 2.4-.9c1.1-.8 1.8-1.5 3.3-2.9s2.3-2.3 4-4 2.8-2.7 4.6-4.3 2.9-2.5 4.5-3.7 2.5-1.9 3.6-2.6 1.4-1 1.8-1.1.2 0-.1.6-.7 1.1-1.4 2.3-1.2 2-1.9 3.5c-.8 1.5-1.2 2.4-1.8 3.8s-1 2.1-1.3 3.2c-.2 1.1-.3 1.6 0 2.2s.8.8 1.7.7c.9 0 1.6-.3 2.9-1.1s2.2-1.5 3.8-2.7 2.7-2.2 4.5-3.6 2.9-2.3 4.5-3.5c1.7-1.2 2.6-1.8 3.9-2.7 1.3-.8 1.9-1.2 2.5-1.5s.7-.4.6-.2c0 .2-.4.6-1 1.4-.5.9-1 1.6-1.7 2.9s-1.2 2.3-1.9 3.8c-.6 1.5-1.1 2.4-1.4 3.8s-.4 2.1-.2 3.1.5 1.5 1.4 2 1.5.6 2.9.4 2.2-.5 4-1.3c1.7-.8 2.7-1.5 4.7-2.8s3.1-2.2 5.1-3.7c2.1-1.5 3.2-2.4 5.1-3.9s3-2.4 4.4-3.6 1.9-1.8 2.4-2.4c.5-.5.4-.6 0-.4-.3.2-.9.7-1.7 1.7s-1.6 1.9-2.5 3.4-1.4 2.6-2 4.1-.9 2.4-1 3.6-.1 1.9.4 2.7c.5.9.9 1.3 2 1.5s1.8.2 3.3-.1c1.5-.4 2.4-.8 4.1-1.8 1.8-1 2.8-1.7 4.7-3s3-2.2 4.9-3.6 3-2.3 4.4-3.6c1.4-1.2 2-1.9 2.6-2.6s.5-.9.2-.8-.8.5-1.6 1.4-1.5 1.7-2.3 3.2-1.2 2.5-1.6 4.1c-.4 1.5-.5 2.4-.3 3.7s.4 1.9 1.2 2.7 1.4 1.2 2.8 1.4 2.3.2 4.2-.2 3-.8 5.2-1.7 3.6-1.7 5.8-2.8c2.1-1.2 3.2-1.9 4.8-3s2.5-1.8 3-2.5.4-.9-.4-.8-1.9.6-3.6 1.3-2.9 1.3-5.1 2.3c-2.1 1-3.5 1.8-5.6 2.7s-3.1 1.3-4.7 1.8-2.4.6-3.4.7c-1 0-1.4 0-1.8-.4s-.5-.7-.3-1.6.4-1.5 1-2.7 1.3-2.1 1.9-3.5c.7-1.4 1.1-2.4 1.5-3.6s.4-2 0-2.6c-.3-.6-.7-.8-1.7-.5s-1.8.8-3.4 1.8-2.7 2-4.6 3.4-3 2.2-4.8 3.5c-1.9 1.3-2.9 1.9-4.5 2.8s-2.4 1.3-3.5 1.9c-1.2.5-1.6.7-2.3.8s-.8 0-.9-.4c0-.4 0-.8.4-1.7s.8-1.6 1.5-2.9c.8-1.3 1.5-2.2 2.3-3.7s1.4-2.5 1.8-3.8.6-2.1.3-2.8c-.2-.7-.5-1-1.5-.9s-1.8.6-3.3 1.6c-1.6 1-2.6 2-4.6 3.4-2 1.5-3.1 2.3-5.2 3.8-2 1.5-3.2 2.3-5.1 3.5s-2.9 1.8-4.4 2.7c-1.5.8-2.2 1.2-3.2 1.6s-1.3.6-1.7.5c-.4 0-.4-.2-.3-.8s.3-1.1.8-2.2 1-1.8 1.8-3.2c.7-1.4 1.4-2.3 2-3.7.6-1.5 1-2.3 1.1-3.5s.2-1.9-.3-2.6c-.4-.7-.9-1-1.9-.9-1 0-1.8.3-3.3 1s-2.4 1.3-4.2 2.5-2.9 2-4.8 3.3c-1.9 1.4-3 2.2-4.6 3.4-1.6 1.3-2.5 1.9-3.6 2.9s-1.5 1.4-1.9 2c-.4.5-.4.7-.2.6s.5-.4 1.1-1.1c.6-.8 1-1.5 1.8-2.8s1.4-2.2 2.1-3.7 1.3-2.5 1.7-3.9.5-2.2.3-3.2-.5-1.5-1.3-1.7c-.8-.3-1.5-.2-2.9.3s-2.3 1.2-4.1 2.4-2.9 2.1-4.8 3.7-3.1 2.6-4.9 4.2-2.8 2.5-4.2 3.9-2.1 2.2-2.9 3.2-.9 1.5-1 1.9 0 .5.4.3.7-.6 1.4-1.5 1.2-1.6 2.2-3 1.8-2.4 2.9-4 1.8-2.5 2.6-3.9 1.2-2.2 1.3-2.9c0-.7-.2-.9-.8-.6"/><path d="m382.5 6.2c-.3.2-.3.4-.7 1.1s-.6 1.2-1.1 2.6c-.6 1.4-.9 2.4-1.8 4.5s-1.5 3.4-2.7 6-2 4.1-3.4 6.8-2.3 4.2-3.8 6.7c-1.4 2.6-2.2 3.9-3.3 6.1s-1.7 3.2-2.4 4.9-.9 2.4-1 3.5c0 1 .1 1.5.8 1.8.6.3 1.2.3 2.4-.3s2-1.1 3.8-2.5c1.7-1.4 2.7-2.5 4.9-4.5s3.5-3.3 6.1-5.7c2.6-2.3 4.2-3.6 7.1-6s4.5-3.6 7.5-5.8 4.5-3.3 7.2-5.2 4.1-2.7 6.4-4.3 3.3-2.3 5-3.5 2.5-1.8 3.4-2.7c1-.9 1.2-1.3 1.4-1.7s0-.6-.4-.5c-.5 0-.8.3-2 1s-2 1.1-3.7 2.2c-1.8 1.1-2.8 1.9-5.1 3.4-2.3 1.6-3.6 2.5-6.3 4.5s-4.2 3.1-7.2 5.3-4.6 3.5-7.5 5.8c-3 2.3-4.5 3.6-7.3 5.8s-4.2 3.4-6.5 5.3-3.4 2.9-5 4.3-2.2 2.1-3 3-1 1.2-1.1 1.3 0 0 .5-.7.7-1.4 1.5-2.9 1.4-2.5 2.6-4.7 1.9-3.5 3.4-6c1.4-2.6 2.3-4 3.8-6.8 1.5-2.7 2.4-4.2 3.7-6.7 1.3-2.6 2-3.9 2.9-6.1s1.2-3.2 1.6-4.8.4-2.2.4-3.1-.1-1.1-.4-1.4c-.2-.3-.5-.3-.8 0"/><path d="m386.8 29.3c-.4.1-.7.4-1.1 1.1-.3.7-.5 1.2-.6 2.3s0 1.8.1 3.1c.2 1.3.3 2.1.7 3.5s.6 2.1 1.1 3.4.8 1.9 1.5 3.1c.7 1.1 1 1.7 2 2.6 1 .8 1.6 1.2 2.9 1.7s2.1.6 3.7.5 2.5-.3 4.4-.8c1.9-.6 2.9-1 5-2s3.3-1.7 5.5-3 3.4-2.1 5.6-3.5 3.4-2.2 5.5-3.5 3.2-2 5-3.2 2.7-1.8 4-2.7c1.4-.9 2-1.3 2.8-1.9s1.1-.9 1.3-1.4 0-.7-.3-1c-.4-.3-.8-.4-1.5-.3s-1.2.3-2.2.9-1.5 1-2.7 2c-1.1 1-1.8 1.5-3.1 2.8-1.3 1.2-2.1 2-3.4 3.4s-2 2.3-3.1 3.7c-1.1 1.5-1.7 2.3-2.4 3.6s-1.1 2-1.4 3.2c-.2 1.2-.2 1.8.1 2.6s.7 1.2 1.5 1.6c.8.3 1.5.4 2.6.1 1.2-.3 1.9-.6 3.3-1.4s2.2-1.5 3.7-2.7 2.4-2 3.9-3.5 2.5-2.4 3.7-3.8 1.9-2.2 2.5-3.2.7-1.4.6-1.6-.5 0-1.1.5c-.6.6-1.2 1.2-1.9 2.3-.7 1.2-1.1 2.1-1.4 3.4s-.4 2.2-.3 3.4.3 1.8 1 2.5c.7.8 1.2 1.1 2.4 1.3s2 0 3.6-.5c1.7-.6 2.6-1.1 4.6-2.3 2-1.3 3.1-2.1 5.4-4 2.2-1.9 3.4-3.1 5.7-5.4s3.6-3.7 5.8-6.2 3.4-3.9 5.4-6.5 3.1-3.9 4.8-6.3 2.4-3.6 3.6-5.7 1.6-3.1 2.3-4.7.9-2.3 1-3.5c0-1.1 0-1.6-.5-2.2s-1-.8-1.9-.7-1.5.4-2.8 1.3c-1.2 1-1.9 1.7-3.3 3.4s-2.2 2.8-3.8 5.2c-1.6 2.3-2.5 3.8-4.1 6.5s-2.6 4.2-4.2 7-2.5 4.2-4 6.8-2.2 3.9-3.3 6.1-1.7 3.2-2.4 4.9-1 2.4-1.2 3.4 0 1.4.3 1.7c.4.3.8.3 1.7-.2.9-.4 1.5-.9 2.6-2 1.2-1.1 1.8-2 3.2-3.4s2.2-2.3 3.7-3.7 2.4-2.1 3.8-3.2 2.2-1.5 3.3-2.2 1.7-.9 2.4-1.2.9-.3 1.1-.2.2.2 0 .7-.4.8-.8 1.6c-.5.8-.8 1.4-1.5 2.5-.7 1.2-1.2 1.9-2 3.2-.9 1.3-1.4 2-2.3 3.2s-1.4 1.8-2 2.8-.9 1.4-1.1 2.2-.2 1.1 0 1.6c.3.5.6.7 1.3.8.7 0 1.3 0 2.4-.3s1.7-.8 3.1-1.6 2.2-1.4 3.8-2.5 2.6-1.8 4.4-3.2 2.8-2.1 4.6-3.7 2.8-2.4 4.6-4c1.8-1.7 2.7-2.5 4.4-4.2s2.5-2.6 3.9-4.2c1.5-1.7 2.2-2.6 3.4-4.2 1.3-1.6 1.9-2.5 2.9-4s1.5-2.3 2.3-3.7 1.1-2.1 1.7-3.2.9-1.6 1.2-2.4.3-1.4.2-1.9c0-.4-.5-.3-.6-.3s0 .1 0 .2c0 0 0-.3-.3 0-.3.2-.6.5-1.1 1.2s-.6 1.2-1.2 2.3-1 1.8-1.7 3.1c-.8 1.3-1.2 2.1-2.2 3.5s-1.6 2.3-2.8 3.9-1.9 2.4-3.4 4.1c-1.5 1.6-2.2 2.5-3.9 4.1-1.6 1.6-2.5 2.5-4.3 4.1s-2.8 2.4-4.6 3.9-2.8 2.2-4.6 3.5-2.7 2-4.3 3-2.4 1.5-3.7 2.3-1.9 1.1-2.8 1.6-1.2.8-1.6 1.1-.4.6-.3.6c0 0 .3 0 .8-.4s.8-.8 1.5-1.7c.8-.9 1.3-1.4 2.2-2.6s1.5-1.9 2.5-3.2c.9-1.3 1.5-2 2.2-3.3s1.1-1.9 1.4-3.1c.3-1.1.4-1.8.2-2.6-.2-.9-.5-1.3-1.1-1.8-.7-.5-1.1-.6-2.2-.5-1 0-1.7.3-3.1.9s-2.2 1.1-3.8 2.1-2.5 1.8-4.2 3.1-2.6 2.2-4.1 3.6-2.2 2.3-3.2 3.5-1.3 1.9-1.7 2.7-.3 1.2-.1 1.2.4 0 .9-.9c.5-.8.8-1.5 1.6-3 .8-1.6 1.4-2.6 2.5-4.7s1.9-3.5 3.3-6c1.4-2.6 2.2-4 3.9-6.8 1.6-2.7 2.6-4.2 4.3-6.8 1.8-2.6 2.8-3.9 4.4-6.2 1.6-2.2 2.5-3.3 3.8-5s2-2.4 2.9-3.4 1.1-1.4 1.5-1.8.4-.5.5-.2c0 .2 0 .4-.3 1.3-.3.8-.5 1.5-1.2 2.9-.7 1.5-1.2 2.4-2.4 4.4s-2 3.2-3.6 5.5c-1.6 2.4-2.6 3.8-4.5 6.3-2 2.5-3.1 3.9-5.4 6.4-2.2 2.5-3.5 3.8-5.9 6s-3.6 3.2-5.8 5c-2.2 1.7-3.3 2.5-5.1 3.7s-2.7 1.7-4 2.3-1.9.8-2.6.9c-.8.1-1 0-1.2-.3-.3-.4-.2-.7 0-1.5s.5-1.3 1-2.4 1-1.9 1.4-3.1.7-2.1.7-3 0-1.4-.6-1.6c-.5-.2-1 0-2 .6-1 .7-1.7 1.4-3 2.7s-2.2 2.3-3.7 3.7-2.3 2.2-3.7 3.3c-1.4 1.2-2.2 1.7-3.4 2.5s-1.7 1.1-2.5 1.5-1.1.5-1.5.6-.5 0-.5-.4 0-.8.4-1.6.7-1.4 1.5-2.6 1.3-1.9 2.4-3.3c1.1-1.3 1.8-2.1 3-3.5 1.3-1.3 2-2.1 3.3-3.2s1.9-1.7 3-2.6 1.7-1.1 2.5-1.7 1.2-.8 1.6-1.3.5-.8.6-1.1c0-.3 0-.5-.5-.5s-.8.1-1.7.6-1.5.9-2.9 1.7-2.3 1.4-4.1 2.5c-1.9 1.1-3 1.8-5.1 3.1s-3.3 2.1-5.5 3.5-3.4 2.1-5.5 3.4c-2.2 1.2-3.3 1.9-5.3 2.8s-3 1.4-4.7 2-2.5.8-3.8.9c-1.3.2-1.9 0-2.9-.2s-1.4-.5-2.1-1.2-1-1.1-1.5-2.1-.7-1.6-1.1-2.8-.5-1.9-.8-3.2c-.2-1.3-.3-2-.5-3.2-.1-1.2-.1-1.8-.2-2.7s0-1.3-.1-1.9c0-.6 0-.9-.1-1.2-.2-.3-.5-.5-.9-.4"/><path d="m494.7 7.6c-.5.2-1 .5-1.9 1.5s-1.4 1.6-2.4 3.2-1.6 2.6-2.6 4.5-1.4 3.1-2.4 5.2-1.5 3.3-2.4 5.4-1.4 3.3-2.2 5.2c-.8 2-1.2 3-1.7 4.7s-.8 2.5-1 3.8-.2 1.8 0 2.6.5 1.1 1.2 1.4c.7.2 1.1.2 2.1 0s1.6-.8 2.8-1.7c1.3-.9 2-1.6 3.5-2.9 1.5-1.2 2.4-2 4-3.4 1.6-1.3 2.5-2.1 4.1-3.3 1.5-1.2 2.3-1.8 3.6-2.8 1.2-.9 1.9-1.3 2.6-1.9.8-.6 1.1-.8 1.3-1.1s.1-.4-.1-.3c-.2 0-.6.2-1.1.7-.6.5-1 .9-1.7 1.8-.8.9-1.2 1.6-2 2.8-.9 1.2-1.4 1.9-2.2 3.1s-1.4 2-2 3.2-.9 1.8-1.2 2.9c-.2 1.1-.2 1.6 0 2.5.3.8.6 1.3 1.4 1.8s1.4.7 2.6.7 2 0 3.5-.4c1.6-.4 2.5-.7 4.2-1.5 1.8-.7 2.8-1.2 4.6-2.2 1.9-1 2.9-1.5 4.7-2.6s2.8-1.7 4.5-2.7c1.7-1.1 2.5-1.6 3.8-2.6s2-1.4 2.9-2.2 1.3-1.1 1.7-1.6.5-.9.3-1.2-.5-.5-1.3-.3c-.7.2-1.4.5-2.4 1.3s-1.6 1.5-2.7 2.8c-1 1.3-1.7 2.2-2.5 3.6-.9 1.5-1.4 2.3-1.8 3.8s-.5 2.2-.4 3.3.4 1.8 1.2 2.5 1.4 1.1 2.6 1.3 2 .2 3.5-.2c1.5-.3 2.3-.7 3.8-1.6 1.5-.8 2.3-1.5 3.7-2.7 1.3-1.2 2-2 3-3.4s1.4-2.3 1.9-3.7.5-2.3.3-3.6-.5-2-1.3-3-1.4-1.5-2.5-2c-1.1-.6-1.9-.7-3.1-.8-1.2 0-1.9 0-2.8.4s-1.4.9-1.6 1.6-.2 1.3.3 2 1 1.1 2.3 1.5c1.2.4 2.1.5 3.9.5s3 0 5.3-.3 3.6-.5 6-.9 3.7-.7 6.2-1.1c2.4-.4 3.7-.6 5.9-1s3.3-.6 5.1-.9c1.7-.3 2.5-.5 3.5-.7 1.1-.3 1.6-.4 2-.7s.4-.5 0-.7-.9-.2-2.1-.3c-1.2 0-1.9-.1-3.7 0-1.8.2-2.9.4-5.1.7s-3.5.5-5.9.9-3.7.6-6.1 1c-2.4.3-3.7.5-5.8.7s-3.3.2-5 .2-2.4 0-3.4-.1c-1 0-1.4-.1-1.8-.2s-.4 0-.2 0 .5 0 1.1-.1c.6 0 1.1-.2 2 0 .8 0 1.5.1 2.3.5.8.3 1.3.6 1.9 1.2.5.7.8 1.1.9 2 0 .9 0 1.5-.4 2.6s-.8 1.8-1.7 3-1.5 1.8-2.7 2.9c-1.2 1-2 1.5-3.3 2.3-1.3.7-2.1 1-3.2 1.4-1.2.4-1.7.5-2.6.6s-1.2 0-1.6-.4c-.4-.3-.6-.6-.5-1.4 0-.8.2-1.3.7-2.4s1-1.8 1.9-3.1 1.6-2 2.6-3.2 1.6-1.7 2.4-2.7 1.2-1.4 1.5-2c.3-.7.2-1 0-1.2-.3-.2-.6-.2-1.2 0s-1 .6-1.9 1.2c-1 .6-1.6 1.1-2.9 2s-2.2 1.4-3.8 2.4c-1.7 1-2.6 1.6-4.4 2.6s-2.8 1.6-4.6 2.5-2.8 1.4-4.5 2c-1.7.7-2.5 1-3.9 1.3-1.4.4-2 .5-2.9.7s-1.3.2-1.8 0c-.5 0-.6-.1-.7-.5 0-.4 0-.7.4-1.4s.6-1.2 1.3-2.3c.7-1 1.2-1.7 2.1-2.8.9-1.2 1.5-1.8 2.4-3s1.5-1.7 2.2-2.8 1-1.5 1.3-2.4.2-1.3 0-1.9c-.2-.5-.5-.8-1.1-.9-.6 0-1.1 0-2.1.5-1 .4-1.6.8-3 1.7s-2.2 1.5-3.8 2.6-2.6 1.9-4.2 3.2c-1.7 1.3-2.6 2-4.1 3.3s-2.3 1.9-3.5 2.9-1.6 1.5-2.1 2.1c-.6.6-.7.9-.8 1s0 0 0-.4c.1-.5.3-1 .6-2.1.4-1.1.5-1.9 1.1-3.5s1-2.6 1.8-4.5 1.3-3.1 2.3-5.1c1-2.1 1.5-3.3 2.5-5.3 1-2.1 1.5-3.1 2.5-5s1.6-2.8 2.5-4.4 1.3-2.3 1.8-3.4.9-1.6.9-2.1-.2-.8-.8-.6"/><path d="m21 96.3c-.3.2-.3.3-.7 1-.3.7-.5 1.1-1 2.5s-.7 2.3-1.3 4.4-1 3.3-2 5.8-1.5 3.9-2.6 6.6-1.8 4.2-3 6.8-1.9 4.1-3 6.4c-1.1 2.4-1.7 3.5-2.5 5.4-.9 1.8-1.3 2.6-1.8 3.7s-.7 1.4-1 1.9c-.2.5-.2.5-.3.6 0 0-.1-.2-.2-.2s-.4.2-.3.4c0 .2.3.4.6.4.4 0 .6 0 1.2-.4.5-.4.8-.7 1.6-1.8.7-1.1 1.2-1.9 2.2-3.6 1-1.8 1.6-3 2.7-5.3 1.1-2.4 1.8-3.8 3-6.4 1.2-2.7 1.9-4.2 3.1-6.8 1.2-2.7 1.9-4.1 2.9-6.6s1.5-3.8 2.1-5.9c.7-2.1.9-3.1 1.2-4.6s.2-2 .2-2.8-.2-1-.4-1.3-.5-.3-.8 0"/><path d="m.9 101c.4.1.6 0 1.6-.2 1.1-.2 1.8-.3 3.7-.7s3.2-.7 5.9-1.3 4.4-1 7.5-1.7c3.2-.7 5-1.1 8.3-1.7s5.2-.9 8.3-1.5c3.2-.5 4.8-.7 7.5-1.2s4-.6 5.9-.9c2-.3 2.7-.3 3.9-.5 1.1-.2 1.3-.3 1.8-.5.4-.1.3 0 .4-.2s.2 0 0-.2c0-.2 0-.3-.4-.5-.5-.2-.8-.3-1.9-.4-1.2 0-2 0-4 .2s-3.3.3-6 .7-4.3.8-7.5 1.3c-3.2.6-5 .9-8.3 1.5s-5.1.9-8.4 1.5c-3.2.5-5 .7-7.7 1.2s-4.1.8-6 1.4-2.7 1-3.7 1.6-1.1.9-1.3 1.3 0 .6.4.8"/><path d="m8.8 116.6c.3.3.6.4 1.6.5 1 0 1.8 0 3.5-.2 1.7-.3 2.9-.6 5.1-1.2s3.6-1.1 6-1.8 3.8-1.2 6.2-1.9 3.7-1.1 5.9-1.7 3.3-.8 5.2-1.3c1.8-.4 2.7-.6 4-.9 1.4-.3 2.2-.2 2.8-.5s.6-.6 0-.8c-.6-.3-1.5-.5-3-.5s-2.4.1-4.3.4-3.1.6-5.3 1.2-3.5.9-6 1.6c-2.5.6-3.8 1-6.3 1.7s-3.8 1-6 1.6-3.3.8-4.9 1.3-2.3.7-3.2 1-1.1.4-1.4.7-.3.6 0 .8"/><path d="m55.5 119.9c-.4.2-.7.6-1.2 1.5-.5.8-.9 1.4-1.4 2.6-.6 1.2-1 2.1-1.5 3.5s-.8 2.2-1.1 3.5-.5 2-.5 2.9c0 1 .3 1.4.6 1.9s.5.6.8.6.4-.1.4-.3 0-.3 0-.7 0-.6.2-1.3.4-1.3.9-2.4.8-1.8 1.4-3.1 1-2.2 1.4-3.5c.5-1.3.6-2 .8-2.9.2-1 .2-1.5 0-1.9-.2-.5-.5-.6-.9-.3"/><path d="m67.8 100.8c.4.1.6 0 .6 0s-.3 0-.5 0-.6.3-.6.3 0 0 .2-.3.8-.8.9-1.2 0-.6-.3-.7c-.3 0-.7.2-1.1.3-.4.2-.6.2-.7.4 0 .2 0 .3.4.5.3.2.8.4 1.2.5"/><path d="m84.7 98.2c-.4.2-.5.4-1.1 1.3s-1 1.4-1.9 3-1.6 2.7-2.8 4.9c-1.3 2.2-2.1 3.6-3.5 6.1s-2.4 3.9-3.7 6.4-2.1 3.8-3 6-1.3 3.2-1.5 4.9-.1 2.4.4 3.5c.6 1.1 1.2 1.4 2.5 1.8 1.3.3 2.2.2 4.1-.3s3-1 5.3-2.1c2.2-1.1 3.6-2 6.1-3.5 2.4-1.5 3.8-2.4 6.2-4 2.4-1.5 3.6-2.3 5.6-3.6 2-1.2 3-1.8 4.3-2.6 1.2-.8 1.7-1.1 2-1.2.3-.2 0-.1-.5.3-.6.5-1.2.9-2.2 2s-1.8 2-2.9 3.4-1.8 2.3-2.7 3.7c-.8 1.3-1.3 2.1-1.6 3-.3 1-.2 1.5.2 1.9.5.4.9.5 2.1.2 1.1-.3 1.9-.7 3.6-1.6s2.7-1.7 4.6-2.9 3.1-2 5.1-3.2 3.2-1.8 4.8-2.6 2.4-1.2 3.3-1.5c.9-.4 1.1-.4 1.2-.3s-.2.4-.8 1-1.2 1.2-2.2 2.1c-.9 1-1.6 1.7-2.3 2.8s-1.2 1.8-1.4 2.7-.2 1.4.4 1.8c.5.4 1.1.5 2.3.2s2.2-.7 4-1.6 3-1.6 5.2-2.7 3.5-1.8 5.7-2.8 3.4-1.5 5.3-2.2 2.9-.9 4.2-1.2c1.3-.2 1.8-.3 2.4-.1s.5.3.4.9-.4 1-.9 1.9-.9 1.6-1.5 2.8-.9 2-1.3 3.2-.5 1.9-.5 2.8c0 1 .2 1.4.4 2 .3.6.6.7.9.8s.5 0 .6-.3-.1-.4 0-.8c0-.4 0-.7.3-1.4.2-.7.4-1.2.9-2.2s1-1.6 1.6-2.9c.5-1.2.9-2 1.2-3.3.2-1.2.3-1.9 0-2.9s-.5-1.5-1.4-2-1.6-.7-3.2-.6-2.6.3-4.7.8c-2.1.6-3.3 1.1-5.7 2s-3.7 1.6-6 2.6c-2.2 1.1-3.5 1.7-5.2 2.7-1.8 1-2.6 1.6-3.5 2.3s-1.1 1-1.2 1.3.3.2 1-.1c.7-.4 1.3-.8 2.3-1.7.9-.9 1.6-1.7 2.4-2.9s1.2-2 1.5-3.2c.2-1.1.2-1.8-.2-2.4-.5-.7-1-.9-2.2-.9s-2.1.3-4 .9c-1.8.7-3.1 1.3-5.1 2.4-2.1 1.1-3.3 1.8-5.3 3s-3.1 1.9-4.6 2.9c-1.5 1.1-2.2 1.7-2.9 2.4s-.8 1.1-.8 1.2.4 0 1-.5c.7-.6 1.2-1.1 2.3-2.3 1.1-1.1 1.9-1.9 3-3.3s1.9-2.4 2.6-3.8c.8-1.4 1.1-2.2 1.2-3.2 0-1 0-1.4-.7-1.8-.7-.3-1.4-.3-2.9.2s-2.6 1.1-4.7 2.3-3.4 2-5.8 3.5-3.8 2.4-6.2 3.8-3.8 2.2-5.9 3.3-3.2 1.6-4.8 2.3-2.2.9-3.1 1c-.9 0-1.2 0-1.4-.6s-.2-1.1.2-2.5.8-2.3 1.8-4.3 1.7-3.3 3.1-5.7 2.3-3.8 3.8-6.2 2.4-3.8 3.7-6 1.9-3.4 2.8-5.1c.8-1.7 1-2.4 1.2-3.5s.2-1.4 0-1.8-.4-.5-.8-.3"/><path d="m208.5 99.6c-.3.3-.4.5-.8 1.4s-.6 1.4-1.1 3c-.6 1.6-.8 2.6-1.6 4.8s-1.3 3.5-2.4 6c-1.1 2.6-1.8 4.1-3.1 6.7-1.3 2.7-2.1 4.1-3.5 6.6s-2.1 3.8-3.3 5.9-1.9 3.1-2.7 4.4c-.9 1.4-1.2 1.9-1.6 2.5-.4.5-.4.6-.4.3 0-.4.2-.8.4-2 .3-1.2.4-2.2.8-4.2s.6-3.3 1.3-5.8 1.1-4 2.1-6.7 1.7-4.2 3-6.9c1.4-2.7 2.2-4.1 3.8-6.7s2.6-3.8 4.5-6 2.9-3.3 5-5.1c2-1.8 3.1-2.6 5.2-3.9 2.1-1.2 3.1-1.8 5.1-2.4 2-.7 3-.8 4.8-.9s2.6 0 3.9.5 2 .8 2.9 1.7 1.2 1.4 1.5 2.6.3 1.8-.1 3.3-.7 2.3-1.8 4-1.9 2.7-3.6 4.4c-1.7 1.8-2.9 2.7-5.1 4.3s-3.5 2.5-5.8 3.8-3.6 2-5.8 2.9c-2.1.9-3.2 1.2-4.9 1.7s-2.4.5-3.4.6c-1.1.2-1.4 0-1.8.2s-.4.4 0 .6c.4.3.8.6 1.9.7 1.2.1 2 .3 3.9 0s3.1-.7 5.4-1.6 3.7-1.5 6.1-2.9 3.9-2.2 6.2-3.9 3.6-2.7 5.4-4.6 2.7-3 3.9-4.9c1.1-2 1.5-3 1.9-4.9.4-1.8.3-2.8-.1-4.3-.4-1.6-1-2.4-2.1-3.5-1.2-1.1-2-1.6-3.6-2.2-1.7-.6-2.7-.7-4.7-.7s-3.2.2-5.4.9-3.4 1.2-5.6 2.6c-2.2 1.3-3.4 2.2-5.6 4.1-2.1 1.9-3.2 3.1-5.2 5.4s-2.9 3.6-4.6 6.2-2.6 4.1-4 6.8c-1.5 2.8-2.2 4.3-3.3 7-1.2 2.8-1.7 4.2-2.6 6.8s-1.2 3.9-1.5 6.1c-.4 2.1-.4 3.2-.2 4.7s.4 2.1 1.1 2.7 1.1.6 2 .2 1.4-.9 2.6-2.3c1.1-1.3 1.8-2.4 3.1-4.4 1.3-2.1 2.1-3.4 3.5-5.9s2.2-4 3.6-6.7 2.2-4.1 3.4-6.7 1.8-3.9 2.6-6.1c.9-2.2 1.2-3.4 1.6-5.1s.4-2.4.4-3.4 0-1.3-.3-1.7-.5-.4-.9-.1"/><path d="m245.8 94.8c-.3.1-.4.2-.8.8-.5.6-.7.9-1.5 2.3-.8 1.3-1.2 2.3-2.3 4.3s-1.8 3.3-3.2 5.8-2.4 4-4.1 6.6-2.8 4-4.4 6.3c-1.6 2.4-2.5 3.6-3.6 5.5s-1.6 2.8-2 4-.3 1.7.2 2.1 1.1.4 2.3 0 2.1-1 3.8-2.1 2.7-2.1 4.6-3.4c1.9-1.4 3-2.3 4.8-3.5s2.9-1.8 4.4-2.6 2.3-1 3.3-1.3 1.3-.2 1.7.1.4.7.4 1.5-.3 1.5-.4 2.7-.4 2-.5 3.3-.2 2.1 0 3.3.4 1.8 1.1 2.5c.7.8 1.2 1.1 2.4 1.3s2 0 3.6-.4 2.6-.9 4.5-1.9 3-1.7 5-3 3.2-2.1 5.2-3.4 3-2.1 4.7-3.2 2.6-1.6 3.6-2.5c1.1-.8 1.6-1.3 1.8-1.8.3-.5 0-.7-.5-.6-.6 0-1.2.3-2.4 1-1.1.7-2 1.4-3.4 2.6-1.3 1.3-2.1 2.2-3.3 3.7s-1.9 2.3-2.7 3.6c-.8 1.4-1.1 2.1-1.3 3.2s0 1.6.5 2.3 1.1.9 2.1 1 1.8 0 3.1-.6c1.3-.5 2.1-1 3.4-2s2.1-1.7 3.3-2.9 1.8-2 2.7-3.3 1.3-2 1.8-3.2.5-1.8.4-2.8c0-1-.4-1.4-.8-2.1-.5-.6-.9-.9-1.5-1s-1.1 0-1.4.4-.4 1-.1 1.4c.3.5.6.8 1.6.9s1.6.1 3-.2c1.5-.3 2.4-.6 4.3-1.3s3-1.2 5.3-2.3c2.2-1.1 3.5-1.8 6-3.2s3.8-2.3 6.2-3.8c2.5-1.6 3.8-2.4 6.1-4.1s3.5-2.5 5.5-4 2.9-2.3 4.3-3.5 2-1.9 2.7-2.7c.6-.8.7-1.2.4-1.3-.3 0-.8 0-1.8.9s-1.8 1.7-3.3 3.5-2.4 3.2-4.2 5.7-2.9 4.1-4.8 6.8-3.1 4.2-4.9 6.7-2.8 3.8-4.2 5.9-2 3.2-2.8 4.7c-.8 1.6-1.1 2.2-1.2 3.1-.2.9 0 1.1.3 1.4.4.3.8.2 1.5 0 .6-.2 1.2-.5 1.9-1.2.7-.6 1-1.2 1.5-2s.7-1.3 1.1-1.9.6-.9 1-1.2.5-.4 1-.4.7 0 1.4.2c.8 0 1.2.3 2.4.3s1.9 0 3.4-.1c1.5-.2 2.4-.3 4.2-.7s2.8-.6 4.7-1.1 3-.9 4.9-1.5 2.9-1 4.5-1.7c1.6-.6 2.4-.9 3.6-1.5s1.7-.9 2.2-1.4c.5-.6.6-1.1.4-1.4-.3-.4-.8-.6-1.8-.5s-1.8.4-3.3 1.1c-1.5.8-2.5 1.4-4.1 2.6s-2.7 2.1-4.1 3.5c-1.5 1.5-2.3 2.3-3.2 3.7-1 1.4-1.4 2.2-1.6 3.5s-.2 1.9.4 2.9c.5.9 1.1 1.4 2.3 1.8s2.1.5 3.8.3 2.7-.6 4.6-1.3c1.9-.8 3-1.4 4.8-2.6s2.8-1.9 4.3-3.3 2.2-2.2 3.1-3.5c.9-1.4 1.3-2.1 1.5-3.3s.1-1.8-.3-2.8c-.4-.9-.9-1.4-1.8-1.9s-1.6-.7-2.6-.7-1.8.2-2.5.8-1.1 1.1-1.1 1.9.1 1.4.8 2.1 1.4 1 2.8 1.3c1.5.3 2.5.4 4.6.3s3.4-.2 5.9-.5 3.9-.6 6.6-1c2.7-.5 4.3-.8 6.7-1.3s3.6-.8 5.3-1.3 2.6-.8 3.2-1.2.6-.6-.1-.8c-.7-.1-1.6 0-3.4 0-1.8.1-3 .3-5.4.6s-4.1.7-6.7 1.1-4 .7-6.5 1c-2.4.3-3.7.4-5.6.4-2 0-2.8 0-4.1 0-1.2 0-1.7-.2-2.2-.3s-.5-.2-.5-.3c0 0 .3 0 .8-.1s.9-.2 1.5-.3c.6 0 1.1-.2 1.6 0 .5.1.9.2 1.1.7s.3.8 0 1.6-.6 1.4-1.5 2.5-1.6 1.8-3 3-2.4 1.8-4.1 2.9c-1.7 1-2.8 1.5-4.5 2.3-1.7.7-2.6 1-4 1.3s-2 .4-2.9.4-1.2-.1-1.4-.6c-.3-.4-.2-.7.1-1.6.4-.8.8-1.4 1.8-2.6 1-1.1 1.8-1.9 3.2-3.1 1.5-1.2 2.5-2 4.1-3.1s2.5-1.6 3.8-2.4 1.9-1.2 2.6-1.8.8-.9.8-1.2-.3-.3-1-.2c-.7 0-1.1.3-2.3.7s-2 .7-3.6 1.3-2.6.9-4.5 1.5-2.9.9-4.8 1.4-2.9.7-4.6 1.1c-1.7.3-2.5.5-4 .7-1.4.2-2 .2-3.1.2s-1.5 0-2.3 0-1.1 0-1.8.2-1 .3-1.7.6c-.7.4-1 .6-1.7 1.2s-1.1 1-1.8 1.7c-.7.8-1.1 1.2-1.5 2s-.6 1.3-.7 1.9 0 .9 0 1 .2 0 .7-.6.8-1.2 1.7-2.6 1.5-2.4 3-4.4c1.4-2.1 2.3-3.4 4.1-5.9s2.9-4 5-6.6c2-2.6 3.2-4.1 5.2-6.5s3-3.6 4.4-5.6c1.4-1.9 2-2.8 2.6-4.1s.6-1.8.4-2.2c-.3-.4-.7-.4-1.7 0s-1.6 1.1-3.1 2.2-2.4 1.9-4.3 3.3c-2 1.4-3.2 2.3-5.5 3.9s-3.6 2.5-6 4c-2.5 1.5-3.8 2.3-6.2 3.6s-3.7 2-5.9 3-3.3 1.5-5.1 2.1c-1.8.7-2.7.8-3.9 1.2s-1.8.3-2.4.6-.8.2-1 .4-.1.5 0 .8c0 .2.2.2.4.4.2.1.5 0 .7.3s.4.5.4 1c0 .6-.1 1-.6 1.9s-.9 1.5-1.8 2.6-1.5 1.8-2.6 2.8c-1.1 1.1-1.9 1.7-3.1 2.5-1.2.9-1.9 1.3-2.9 1.8-1 .6-1.5.8-2.1 1.1s-.9.4-1 .2 0-.4.3-1c.4-.7.7-1.2 1.6-2.3s1.5-1.8 2.8-3.1 2.2-2 3.5-3.2 2-1.9 2.9-3 1.2-1.7 1.3-2.3c.1-.7 0-1-.7-1-.6 0-1.3.2-2.5.8-1.3.6-2.1 1.2-3.9 2.3-1.7 1.1-2.8 1.8-4.8 3.1s-3.2 2.1-5.2 3.3-3.1 1.9-4.9 2.8-2.7 1.4-4 1.9c-1.3.6-1.9.8-2.7.9s-1 0-1.2-.4c-.3-.4-.2-.8-.1-1.7 0-.9.3-1.5.5-2.8.2-1.2.4-2.1.4-3.4s0-2.1-.3-3.2c-.4-1.1-.6-1.7-1.5-2.3s-1.4-.8-2.8-.8-2.2.2-4 .9-2.9 1.3-4.9 2.4c-2 1.2-3.2 2-5.2 3.3s-3.1 2.2-4.7 3.4c-1.5 1.3-2.3 2-3.1 2.9s-1 1.3-1 1.4c0 0 .2 0 .9-.9s1.3-1.6 2.5-3.4 2.2-3 3.8-5.3 2.6-3.8 4.3-6.4 2.8-4 4.4-6.5 2.4-3.8 3.5-5.9 1.6-3.1 2.1-4.5c.6-1.4.6-1.9.7-2.8.1-.8 0-.9-.1-1.3-.2-.3-.4-.4-.8-.2"/><path d="m438.1 95.5c0-.4-.3-.8-.9-1.2s-1.1-.7-2.1-.9c-1.1-.2-1.7-.3-3.1-.3s-2.2.2-3.8.7-2.6.8-4.4 1.6-2.9 1.4-4.7 2.5-2.7 1.8-4.1 3.1-2.1 2-2.9 3.4-1 2.1-1 3.4.3 2 1.1 3.3c.8 1.2 1.5 1.8 2.9 2.9s2.4 1.5 4.2 2.4c1.7.9 2.8 1.3 4.6 2.1s2.7 1.2 4.2 2.1c1.5.8 2.2 1.2 3.2 2s1.3 1.1 1.5 1.8.2 1.1-.3 1.9-1 1.2-2.2 2.1-2.1 1.4-3.9 2.4-2.9 1.5-5 2.4c-2 .9-3.3 1.3-5.3 1.9s-3.1.9-4.7 1.1c-1.7.3-2.5.3-3.6.3-1.2 0-1.6-.2-2.1-.6s-.7-.6-.6-1.2c0-.6.3-1 1-1.9s1.2-1.5 2.5-2.7 2.2-1.9 4-3.3c1.9-1.4 3-2.1 5.3-3.6s3.6-2.3 6.2-3.9 4-2.4 6.8-4c2.7-1.6 4.2-2.4 6.9-3.9s4.1-2.3 6.6-3.8 3.8-2.3 6-3.7 3.2-2.2 5-3.5 2.5-2 3.8-3.1c1.2-1.2 1.7-1.7 2.3-2.6s.6-1.4.5-2-.5-.9-1.1-1c-.7 0-1.2 0-2.2.6s-1.5 1.2-2.6 2.4-1.7 2.1-2.9 3.9-1.9 2.8-3.1 4.9-1.9 3.3-3.1 5.6c-1.2 2.2-1.8 3.4-2.8 5.6s-1.5 3.3-2.3 5.2-1.1 2.8-1.4 4.3-.4 2.2 0 3.1c.2.9.6 1.3 1.4 1.6s1.4.2 2.6-.2 1.9-.9 3.4-2c1.5-1 2.3-1.8 3.9-3.1s2.6-2.1 4.1-3.3 2.3-1.8 3.3-2.6 1.4-1.1 1.8-1.2c.4-.2.4-.1.3.3s-.5.8-.9 1.7-.8 1.6-1 2.9-.4 2-.4 3.2.1 1.9.7 2.8 1 1.4 2 1.8 1.8.5 3.3.3 2.4-.5 4.2-1.3 2.9-1.4 4.9-2.6 3.1-2 5.1-3.3 3-2.1 4.8-3.4c1.7-1.2 2.6-1.8 3.9-2.8s1.9-1.5 2.4-2.1.5-.9.2-1c-.3 0-.9 0-1.8.6s-1.7 1.2-2.8 2.4-1.9 2.2-2.9 3.7-1.6 2.4-2.3 3.9-.9 2.2-.9 3.3 0 1.7.6 2.4c.5.7 1.1 1 2.1 1.1s1.7 0 3-.4 2-.9 3.3-1.9 1.9-1.6 3-2.9 1.6-2 2.4-3.4c.7-1.4 1-2.2 1.3-3.5s.2-2 0-3.1-.6-1.6-1.2-2.4-1.1-1.1-1.9-1.5c-.8-.3-1.3-.4-1.9-.2s-1 .6-1 1.2c0 .5 0 1 .6 1.6.6.5 1.1.8 2.3 1s2 .3 3.7.2c1.7 0 2.7-.2 4.8-.5 2-.3 3.2-.5 5.4-.9 2.1-.4 3.4-.7 5.4-1.2 2-.4 3.1-.8 4.6-1.1s2.1-.5 2.8-.6.7 0 .4.3-.7.7-1.7 1.7c-1 .9-1.8 1.7-3.1 3.1s-2.1 2.4-3.4 3.9-2 2.4-2.9 3.7c-.9 1.4-1.3 2.1-1.4 3.1-.2 1 0 1.5.6 2s1.2.6 2.4.4 2.1-.5 3.8-1.2c1.7-.8 2.7-1.4 4.6-2.5s3-1.9 4.8-3.1c1.8-1.1 2.7-1.8 4-2.5 1.2-.8 1.7-1.1 2.2-1.3s.5-.2.2.1c-.2.3-.7.7-1.3 1.6-.6.8-1.1 1.5-1.6 2.6s-.8 1.9-.9 3-.2 1.7.1 2.5.6 1.3 1.5 1.6c.8.4 1.5.4 2.7.1s2-.7 3.5-1.5c1.5-.9 2.3-1.6 3.9-2.8 1.6-1.3 2.5-2.1 4-3.5s2.4-2.2 3.6-3.6c1.3-1.3 1.9-2 2.7-3.1s1.2-1.6 1.5-2.3c.3-.8.3-1.1.2-1.4 0-.3-.5-.4-.7-.2s-.6.5-.5 1.1c0 .5.3 1 1 1.5s1.2.7 2.4 1 1.8.3 3.4.3 2.5 0 4.4-.3c1.9-.2 3.1-.4 5.2-.9 2.1-.4 3.3-.8 5.4-1.2 2.1-.5 3.3-.8 5.2-1.2 1.9-.5 2.9-.7 4.3-1.2 1.4-.4 2.1-.6 2.9-1s1-.6 1-1c0-.3-.2-.6-1-.7-.7 0-1.3 0-2.6.3-1.3.4-2.1.8-3.8 1.7s-2.7 1.5-4.5 2.7-2.9 2-4.7 3.4c-1.7 1.4-2.6 2.2-3.9 3.7s-1.9 2.2-2.6 3.6-.9 2.1-.7 3.3c.1 1.2.5 1.8 1.4 2.6s1.7 1.2 3.3 1.4c1.6.3 2.7.3 4.8 0s3.5-.6 5.9-1.4c2.5-.7 3.9-1.2 6.5-2.3 2.6-1 4-1.7 6.6-2.9s3.9-1.9 6.2-3.2c2.3-1.2 3.4-1.9 5.3-3s2.8-1.7 4.1-2.5c1.4-.9 1.9-1.2 2.7-1.9.7-.7.9-.9.9-1.3s-.2-.7-.6-.8c-.5-.2-.9-.2-1.6 0-.8.2-1.2.5-2.1 1.1s-1.4 1.1-2.4 1.9-1.6 1.3-2.7 2.3-1.7 1.6-2.7 2.7-1.5 1.8-2.2 2.9-1 1.7-1.3 2.8-.3 1.6-.1 2.5c.2.8.5 1.3 1.3 1.8s1.3.6 2.5.5 1.8-.3 3.2-.9 2.2-1.1 3.7-2.1 2.3-1.7 3.9-3c1.5-1.3 2.4-2.1 3.8-3.5s2.2-2.2 3.1-3.4 1.2-2 1.4-2.7-.1-1.1-.7-1.1-1.3.2-2.2 1-1.7 1.6-2.6 2.9-1.3 2.3-1.8 3.8-.7 2.3-.7 3.6.2 1.9.9 2.8 1.3 1.3 2.6 1.6 2.2.2 3.9 0c1.7-.3 2.7-.7 4.8-1.6 2-.8 3.2-1.5 5.4-2.7s3.4-2 5.6-3.4 3.3-2.2 5.3-3.4c2-1.3 3-2 4.7-3s2.5-1.5 3.6-2.2 1.7-.9 2.3-1.2.7-.3.8-.1 0 .4-.2.9c-.2.6-.4 1-.7 1.9s-.4 1.5-.8 2.6-.5 1.8-1.1 2.9c-.5 1.2-.8 1.8-1.5 2.9s-1.1 1.7-2 2.6c-.8.9-1.3 1.4-2.1 2.2s-1.3 1.1-2.2 1.6c-.8.5-1.3.7-2 1s-1.1.3-1.5.5-.7.2-.8.3c-.2.1-.2.3 0 .4s.3.2.8.2.9-.1 1.9-.4 1.6-.4 3-.8 2.3-.6 4.1-1c1.8-.5 2.8-.7 4.9-1.4 2.1-.6 3.2-1 5.5-1.7s3.4-1.2 5.7-2.1c2.2-.9 3.4-1.4 5.5-2.4s3.1-1.6 4.9-2.7 2.6-1.7 3.9-2.8 1.9-1.6 2.7-2.7c.7-1.1.9-1.7.9-2.6s-.3-1.5-1-2.1-1.3-.8-2.5-.9c-1.2 0-2.1 0-3.6.6s-2.4 1.1-4 2.2c-1.5 1.1-2.4 1.8-3.6 3.1s-1.9 2.1-2.6 3.6-1 2.4-.9 3.9c0 1.5.3 2.3 1.2 3.5s1.7 1.9 3.5 2.7c1.8.9 3 1.1 5.4 1.5 2.5.4 4 .4 6.8.4s4.5-.2 7.4-.5 4.5-.6 7.1-1 4-.8 6.1-1.2 2.9-.7 4.1-1.1 1.5-.7 2-1.1.4-.5.5-.6c0-.2 0-.2-.2-.3-.2 0-.1 0-.7 0s-.9 0-2.1.2-2.1.3-4.1.7-3.4.6-6 1-4.1.7-6.9.9-4.4.3-7.1.3-4.2 0-6.4-.3c-2.3-.3-3.3-.5-4.9-1.1-1.5-.6-2.1-.9-2.9-1.7s-.8-1.2-.8-2.2.3-1.6 1-2.8c.7-1.1 1.3-1.8 2.5-2.9s2-1.7 3.3-2.6c1.4-.9 2.2-1.3 3.4-1.8 1.2-.6 1.9-.7 2.8-.9.8-.2 1.2-.3 1.5-.2.4 0 .4.2.3.6s-.3.8-1 1.5-1.2 1.2-2.5 2.1c-1.2.9-2.1 1.5-3.8 2.5s-2.7 1.6-4.8 2.5-3.2 1.4-5.4 2.3-3.4 1.3-5.5 2-3.3 1.1-5.4 1.6c-2 .6-3.1.8-4.9 1.3-1.8.4-2.7.6-4.1.9-1.5.3-2.1.4-3.2.8-1 .4-1.5.6-2.1 1.1s-.7.9-.8 1.4c0 .5.2 1 .6 1.3s.8.4 1.5.4 1.1-.1 2-.4 1.4-.5 2.5-1.1c1-.6 1.6-1 2.6-1.8s1.5-1.3 2.4-2.3 1.4-1.6 2.2-2.8 1.2-1.9 1.8-3.2.9-1.9 1.3-3.1.7-1.8.8-2.9c.2-1.1.2-1.7 0-2.5-.2-.9-.4-1.3-1-1.8s-1-.6-1.9-.5c-1 0-1.5.3-2.9.8s-2.2 1-3.9 2c-1.8 1-2.8 1.7-4.8 2.9s-3.2 2-5.3 3.3c-2.2 1.3-3.3 2-5.5 3.2-2.1 1.2-3.3 1.7-5.2 2.5s-2.8 1.2-4.3 1.6-2.1.5-3.1.5-1.2 0-1.6-.5c-.3-.4-.3-.8-.1-1.6s.5-1.4 1.2-2.6c.7-1.1 1.4-1.8 2.2-3.1s1.3-2.1 1.8-3.1.7-1.6.7-2.1-.2-.6-.8-.3-1.1.8-2.2 1.8-1.8 1.9-3.1 3.2c-1.4 1.3-2.2 2.1-3.6 3.3-1.5 1.2-2.3 1.8-3.7 2.8-1.4.9-2.1 1.3-3.2 2-1.1.6-1.6.8-2.4 1.1-.7.3-1 .3-1.3.2-.3 0-.4-.2-.4-.6s.1-.7.5-1.4.7-1.2 1.4-2.2c.7-.9 1.2-1.5 2.1-2.5s1.5-1.5 2.5-2.4 1.6-1.4 2.6-2.1 1.6-1 2.4-1.6 1.2-.8 1.7-1.3.6-.9.7-1.3c0-.4 0-.6-.3-.7s-.6 0-1.4.4-1.4.8-2.8 1.5c-1.4.8-2.3 1.3-4.2 2.3s-3 1.7-5.3 2.8c-2.3 1.2-3.6 1.8-6.2 3s-3.9 1.8-6.5 2.8c-2.5 1-3.9 1.4-6.3 2.1s-3.6 1-5.6 1.3-2.8.4-4.2.4c-1.3 0-1.8-.1-2.5-.5-.7-.3-.8-.6-.8-1.3s.2-1.2.9-2.2 1.3-1.7 2.5-3c1.3-1.2 2.2-2 3.8-3.3s2.7-2 4.5-3.1 2.8-1.6 4.4-2.4 2.4-1.1 3.5-1.8c1.1-.6 1.6-.9 2-1.4s.6-.8.3-1.1c-.2-.3-.5-.4-1.4-.5-.9 0-1.6.2-3 .4-1.5.3-2.4.6-4.3 1s-3.1.7-5.2 1.1-3.3.8-5.3 1.1c-2.1.4-3.2.6-5 .8s-2.7.3-4.1.3-2 0-2.8-.2-1.1-.4-1.5-.6-.4-.2-.6-.3c-.3 0-.4-.1-.7-.2s-.4-.2-.7 0-.4.2-.9.8-.8.9-1.7 1.9-1.5 1.6-2.8 2.8-2.1 2-3.7 3.3c-1.5 1.3-2.5 2.1-4 3.2s-2.4 1.8-3.7 2.6c-1.3.9-1.9 1.2-2.8 1.7s-1.2.6-1.5.7c-.3 0-.3 0-.2-.4s.3-.7.8-1.5c.4-.8.9-1.4 1.3-2.4s.9-1.8 1.1-2.9.4-1.8 0-2.6c-.3-.8-.6-1.2-1.5-1.3-.9-.2-1.6 0-3.1.5s-2.5 1.2-4.4 2.2-3.1 1.8-4.9 2.9-2.9 1.6-4.4 2.5-2.2 1.3-3.1 1.8-1.1.8-1.3.9c-.2 0 0 0 .4-.6.5-.5.9-1.1 1.9-2.2s1.8-1.9 3.1-3.3 2.3-2.2 3.6-3.8c1.3-1.5 2-2.4 2.8-3.7.7-1.3 1-2 .9-3 0-1-.4-1.4-1.4-1.9s-1.8-.5-3.4-.4c-1.7 0-2.8.5-4.8.8-2 .4-3.2.7-5.4 1-2.1.4-3.3.6-5.3.8s-2.9.3-4.5.4c-1.5 0-2.2 0-3.3 0-1 0-1.4-.1-1.9 0s-.6.2-.6.4 0 .4.2.6.5.2 1 .5c.5.2.9.3 1.2.7.4.4.6.7.8 1.5s.1 1.2-.2 2.2-.5 1.6-1.2 2.7-1.2 1.8-2.2 2.8-1.7 1.6-2.7 2.4c-1.1.8-1.7 1.2-2.6 1.8-.9.5-1.3.7-1.9.9s-.8.2-1 0c-.2-.3-.2-.5.1-1.2s.6-1.3 1.3-2.4 1.4-1.9 2.5-3.2 1.9-2.1 2.9-3.4 1.5-2 2.1-3 .7-1.6.5-2c-.2-.5-.5-.6-1.4-.4s-1.6.6-3 1.4-2.2 1.5-4 2.7-2.9 1.9-4.8 3.2c-2 1.3-3.1 2-5 3.1s-3 1.7-4.6 2.4c-1.6.8-2.4 1.1-3.5 1.5s-1.6.4-2.2.3c-.6 0-.8-.2-.9-.8s0-1 .2-1.9.5-1.6.8-2.7c.3-1.2.5-1.9.6-3 0-1.1 0-1.8-.3-2.6s-.8-1.1-1.6-1.3-1.5 0-2.9.6-2.2 1.2-3.9 2.3-2.7 1.9-4.3 3.2c-1.6 1.2-2.5 2-3.9 3.1-1.3 1.1-1.9 1.7-2.7 2.3-.8.7-1 1-1.2 1.1-.3 0-.2 0 0-.6s.2-1.2.7-2.5c.4-1.3.8-2.2 1.5-4 .8-1.8 1.3-2.9 2.3-5s1.6-3.3 2.8-5.4c1.2-2.2 1.9-3.4 3.1-5.4s2-3.1 3.1-4.7c1.2-1.7 1.9-2.4 2.8-3.6s1.5-1.7 2-2.4c.6-.8.7-1.1.9-1.4.1-.3.1-.4-.1-.3s-.4.3-1 1c-.7.6-1.1 1.2-2.3 2.2s-2 1.7-3.7 2.9-2.8 1.9-4.9 3.3c-2.2 1.4-3.4 2.2-5.9 3.7s-3.9 2.3-6.6 3.8c-2.7 1.6-4.1 2.3-6.9 3.9-2.7 1.6-4.2 2.3-6.9 3.9-2.6 1.5-4 2.2-6.4 3.7s-3.6 2.2-5.5 3.7c-2 1.4-2.9 2.2-4.3 3.6s-2 2.1-2.6 3.4-.8 2.1-.6 3.2.5 1.7 1.3 2.4c.9.8 1.5 1 2.9 1.3s2.3.2 4.2 0 3-.4 5.1-1 3.4-1 5.6-1.8c2.2-.9 3.4-1.4 5.3-2.5s2.9-1.7 4.2-2.9 1.8-1.9 2.3-3.2.5-2 .2-3.2-.7-1.8-1.8-2.9c-1-1.1-1.9-1.6-3.4-2.6s-2.5-1.4-4.3-2.3-2.8-1.3-4.5-2.2-2.6-1.3-4-2.1-2-1.2-2.7-2-1-1.2-1-2 .2-1.3 1-2.2 1.4-1.6 2.8-2.6c1.4-1.1 2.3-1.7 3.9-2.7 1.7-1 2.7-1.5 4.4-2.3s2.6-1.1 4-1.6c1.5-.4 2.1-.5 3.3-.6 1.1 0 1.6 0 2.5.2.9 0 1.2.2 1.8.3.6 0 .9.2 1.2 0s.6-.4.5-.9"/></g><path d="m490.5 15.3c1.8-4.2 3.9-7 5.3-8.8 1.4-1.7 2.6-2.9 4.5-3.3.3 0 2.5-.5 3.3.3 1 1 .5 4.2-5.9 14" fill="none" stroke-miterlimit="10" stroke-width="3.2"/><path d="m500.4 3.3c-1.2 1.2-2.5 2.5-3.7 3.9-2.8 3.2-5 6.4-6.6 9.3" fill="none" stroke-miterlimit="10" stroke-width="3"/><path d="m497.2 4.7c-1.1 1.2-2.4 2.5-3.5 4.1-2.3 3.1-4 6.1-5.1 8.6" fill="none" stroke-width="3"/><path d="m496.6 6.6c1.1-.8 2-1.5 2.5-2 .4-.3.7-.6 1.3-.7s1.3 0 1.7.3c1 .6 1.4 2.2.8 3.8" fill="none" stroke-miterlimit="10" stroke-width="3"/></g></svg>