<svg viewBox="0 0 700.69 142.74" xmlns="http://www.w3.org/2000/svg"><g stroke="#001e1e"><g fill="#001e1e"><path d="m160.45 13.55c-.35.32-.45.67-.84 1.75-.39 1.07-.56 1.76-1.09 3.61-.52 1.85-.84 3.09-1.54 5.65-.7 2.58-1.02 4.16-1.96 7.21-.93 3.04-1.51 4.75-2.7 8.01-1.19 3.27-1.93 5.05-3.23 8.32-1.31 3.28-2.04 5.05-3.28 8.04-1.25 3-1.97 4.51-2.97 6.96-1.01 2.46-1.41 3.65-2.05 5.34-.65 1.68-.9 2.19-1.18 3.08s-.18 1.06-.2 1.33c-.03.27.05 0 .05.03 0 .05-.15.1-.06.17s.19.37.51.2c.32-.16.55-.24 1.11-1.04.54-.8.86-1.31 1.66-2.95s1.31-2.79 2.34-5.25c1.02-2.46 1.59-4.02 2.78-7.05 1.2-3.03 1.9-4.81 3.2-8.09 1.31-3.29 2.06-5.05 3.33-8.32s1.92-4.97 3.01-8.01c1.09-3.03 1.68-4.56 2.46-7.16.79-2.6 1.09-3.88 1.45-5.83.35-1.94.34-2.71.36-3.88s-.03-1.55-.27-1.96c-.23-.42-.54-.46-.89-.15"/><path d="m136.44 11.51c.36.15.58.06 1.41-.06.84-.12 1.3-.25 2.77-.54 1.47-.28 2.37-.52 4.56-.9 2.19-.39 3.59-.57 6.39-1.04 2.8-.46 4.41-.79 7.61-1.29s5.01-.76 8.39-1.19c3.39-.44 5.2-.66 8.53-1 3.33-.35 5.05-.48 8.1-.75 3.05-.26 4.57-.35 7.15-.55 2.58-.21 3.77-.27 5.76-.43 2-.17 2.88-.22 4.21-.38s1.94-.18 2.43-.4.51-.46.02-.71-1.1-.39-2.45-.53c-1.36-.13-2.28-.19-4.3-.16-2.03.03-3.23.11-5.84.31-2.6.19-4.12.35-7.18.66-3.07.3-4.79.49-8.13.85s-5.16.58-8.57.97c-3.4.39-5.21.63-8.44.99-3.23.37-4.86.52-7.71.87-2.84.36-4.25.51-6.5.91-2.25.41-3.24.65-4.74 1.15-1.5.49-1.99.84-2.77 1.32-.77.49-.94.72-1.09 1.11-.14.38.02.65.38.8"/><path d="m184.96 44.68c.04.18 0 .43.32.62.34.18.59.4 1.35.28.74-.12 1.21-.3 2.39-.87 1.17-.57 1.96-1 3.48-1.96 1.54-.95 2.49-1.6 4.18-2.83 1.69-1.24 2.64-1.98 4.29-3.36 1.64-1.37 2.53-2.14 3.95-3.52s2.17-2.08 3.16-3.38 1.44-1.98 1.79-3.1.37-1.75-.06-2.54c-.42-.79-.92-1.21-2.06-1.4-1.15-.2-1.99-.15-3.65.45-1.67.6-2.69 1.18-4.68 2.56-1.97 1.38-3.15 2.37-5.21 4.31-2.05 1.94-3.23 3.17-5.07 5.39-1.85 2.23-2.82 3.5-4.16 5.74-1.34 2.23-1.92 3.42-2.54 5.43-.63 2.01-.74 3.01-.56 4.62s.51 2.38 1.49 3.46c.97 1.09 1.74 1.52 3.39 1.96s2.73.45 4.84.22 3.31-.54 5.69-1.33c2.38-.78 3.71-1.36 6.22-2.58 2.5-1.23 3.85-2.02 6.3-3.56 2.45-1.55 3.73-2.46 5.96-4.17 2.24-1.71 3.38-2.65 5.22-4.38s2.69-2.64 3.98-4.26c1.3-1.62 1.83-2.42 2.51-3.81.67-1.4.87-2.07.85-3.17-.03-1.1-.26-1.66-.97-2.33s-1.32-.96-2.58-1-2.1.12-3.72.81-2.58 1.29-4.38 2.61c-1.79 1.33-2.85 2.26-4.59 4.05-1.74 1.78-2.7 2.89-4.13 4.87-1.41 1.98-2.12 3.07-2.97 5-.84 1.94-1.13 2.95-1.25 4.63-.12 1.69.02 2.51.67 3.78s1.22 1.87 2.57 2.57c1.36.7 2.28.93 4.19.94 1.91.02 3.06-.19 5.37-.83 2.3-.63 3.63-1.16 6.13-2.34 2.51-1.19 3.87-2.04 6.4-3.59 2.54-1.55 3.88-2.47 6.29-4.16 2.4-1.69 3.63-2.65 5.72-4.27 2.1-1.63 3.17-2.48 4.76-3.87 1.58-1.39 2.29-2.2 3.19-3.09.9-.9 1.11-1.02 1.31-1.39.21-.38.16-.51-.29-.49-.45.03-.83-.01-1.96.61-1.14.63-2.03 1.26-3.73 2.53-1.7 1.25-2.7 2.16-4.78 3.75-2.09 1.59-3.28 2.56-5.63 4.2-2.37 1.64-3.69 2.55-6.18 4-2.49 1.46-3.86 2.19-6.26 3.29-2.39 1.11-3.65 1.59-5.73 2.23-2.09.63-3.1.85-4.69.98s-2.27.05-3.28-.32c-1.02-.37-1.39-.68-1.8-1.54s-.48-1.44-.26-2.76.51-2.18 1.37-3.84 1.56-2.66 2.95-4.44c1.4-1.79 2.35-2.83 4.02-4.46 1.66-1.64 2.69-2.49 4.33-3.74 1.62-1.23 2.51-1.74 3.82-2.45 1.31-.73 1.91-.92 2.75-1.15s1.11-.24 1.46-.02c.36.23.43.44.29 1.13-.15.69-.32 1.18-1.02 2.31-.7 1.12-1.19 1.87-2.47 3.32-1.27 1.46-2.08 2.33-3.88 3.94-1.8 1.62-2.92 2.51-5.1 4.14s-3.41 2.54-5.8 4.01c-2.38 1.46-3.71 2.18-6.11 3.32-2.41 1.15-3.7 1.68-5.91 2.42-2.22.75-3.34 1.01-5.18 1.32-1.85.3-2.74.36-4.05.2-1.33-.16-1.86-.33-2.55-1-.7-.68-.9-1.17-.93-2.4s.12-2.05.79-3.77 1.24-2.8 2.58-4.83 2.29-3.24 4.1-5.31c1.82-2.07 3-3.22 4.99-5.03s3.16-2.71 4.96-4.01c1.8-1.31 2.72-1.8 4.04-2.52 1.32-.71 1.87-.86 2.57-1.05.71-.2.88-.18.97.09.09.26-.06.53-.54 1.25-.48.73-.88 1.29-1.88 2.38-1 1.07-1.69 1.76-3.09 3.03s-2.29 2-3.92 3.28c-1.63 1.27-2.58 1.96-4.25 3.09-1.68 1.14-2.63 1.7-4.12 2.58s-2.25 1.25-3.31 1.82c-1.05.58-1.44.7-1.96 1.07s-.52.53-.62.79c-.11.27.1.35.09.51 0 .17-.18.14-.16.33"/><path d="m245.49 36.13c-.65.3-1.29.99-2.37 2.12-1.09 1.14-1.86 2.01-3.04 3.55s-1.96 2.64-2.9 4.16c-.95 1.52-1.36 2.31-1.83 3.47-.46 1.15-.6 1.66-.49 2.31.12.66.38.96 1.06.97.69 0 1.24-.17 2.37-.93 1.12-.76 1.81-1.49 3.26-2.86s2.27-2.35 4-4.01c1.73-1.65 2.8-2.66 4.62-4.27 1.83-1.6 2.89-2.47 4.51-3.74s2.5-1.86 3.57-2.61c1.06-.74 1.42-1.02 1.75-1.12s.2.03-.1.62c-.29.58-.7 1.12-1.36 2.27-.66 1.16-1.19 2.05-1.93 3.52-.76 1.46-1.2 2.4-1.82 3.8s-1.02 2.12-1.26 3.2c-.23 1.08-.27 1.62.08 2.2s.76.79 1.67.71c.91-.07 1.55-.35 2.89-1.12s2.17-1.45 3.83-2.71c1.65-1.25 2.67-2.16 4.46-3.57 1.8-1.42 2.86-2.26 4.54-3.49 1.67-1.24 2.59-1.85 3.87-2.68 1.27-.85 1.88-1.2 2.51-1.54.64-.34.71-.42.63-.16-.07.25-.44.56-.98 1.43-.55.88-1.03 1.6-1.74 2.94-.72 1.35-1.2 2.28-1.85 3.79-.65 1.5-1.08 2.37-1.4 3.75-.31 1.36-.42 2.08-.17 3.11.25 1.01.54 1.5 1.4 1.98.85.48 1.5.61 2.87.43s2.25-.48 3.98-1.31c1.72-.82 2.7-1.5 4.66-2.8 1.96-1.31 3.09-2.19 5.15-3.7 2.06-1.52 3.23-2.41 5.15-3.92 1.92-1.5 3.05-2.39 4.42-3.58s1.93-1.83 2.43-2.37c.5-.55.38-.63.06-.37-.33.25-.88.66-1.71 1.67s-1.56 1.87-2.45 3.38c-.88 1.49-1.35 2.57-1.95 4.12s-.88 2.36-1.01 3.63-.11 1.88.35 2.73c.47.86.92 1.26 1.97 1.53s1.82.25 3.3-.13c1.48-.37 2.35-.82 4.12-1.78 1.77-.95 2.79-1.67 4.71-3s3.03-2.18 4.9-3.63c1.87-1.44 3.03-2.33 4.44-3.56 1.41-1.24 2.04-1.93 2.62-2.6.56-.67.5-.88.23-.75-.26.14-.79.51-1.56 1.43s-1.49 1.73-2.27 3.19c-.79 1.45-1.23 2.52-1.62 4.07-.39 1.54-.48 2.4-.3 3.69.17 1.27.39 1.86 1.18 2.68.8.82 1.4 1.17 2.81 1.42s2.34.18 4.21-.2c1.89-.37 3-.77 5.2-1.67s3.65-1.66 5.76-2.82c2.12-1.17 3.24-1.93 4.81-3.04 1.57-1.09 2.51-1.82 3.03-2.46.52-.65.39-.88-.44-.77-.81.12-1.9.59-3.65 1.33-1.74.74-2.94 1.35-5.07 2.35-2.14 1.01-3.53 1.79-5.6 2.68-2.06.88-3.07 1.29-4.69 1.77-1.62.49-2.35.61-3.39.66-1.05.05-1.4-.02-1.83-.42s-.47-.71-.34-1.57.41-1.47.99-2.71 1.27-2.06 1.94-3.49c.68-1.42 1.15-2.39 1.45-3.63s.38-1.95.06-2.57c-.33-.61-.67-.75-1.69-.48-1.01.26-1.81.77-3.41 1.81s-2.7 2.01-4.57 3.4c-1.88 1.38-2.96 2.24-4.82 3.52-1.87 1.27-2.9 1.9-4.51 2.83-1.62.94-2.39 1.34-3.55 1.87-1.17.53-1.63.71-2.26.8s-.79.06-.88-.36c-.09-.4.02-.75.41-1.66.4-.9.77-1.58 1.54-2.89.76-1.32 1.49-2.18 2.3-3.68.83-1.5 1.37-2.49 1.81-3.81.42-1.32.56-2.08.33-2.81-.24-.74-.54-1.03-1.51-.89-.96.13-1.75.58-3.34 1.57-1.59 1-2.64 1.96-4.6 3.41-1.95 1.45-3.1 2.34-5.16 3.81-2.05 1.47-3.19 2.29-5.09 3.54-1.89 1.25-2.85 1.83-4.38 2.68-1.52.84-2.25 1.16-3.25 1.57-.99.42-1.32.57-1.73.51-.41-.07-.41-.21-.31-.81.11-.6.32-1.1.84-2.19s1-1.85 1.75-3.24c.74-1.4 1.36-2.27 1.98-3.72.63-1.46.96-2.32 1.13-3.54s.17-1.86-.27-2.57c-.43-.7-.85-.95-1.9-.94-1.04 0-1.81.29-3.33.99-1.51.7-2.44 1.35-4.24 2.53-1.81 1.17-2.9 1.98-4.79 3.33-1.87 1.36-2.99 2.16-4.62 3.42-1.64 1.26-2.47 1.94-3.57 2.9-1.09.97-1.47 1.44-1.88 1.95-.43.5-.39.67-.22.56s.5-.36 1.06-1.14c.57-.78 1-1.46 1.79-2.75.78-1.28 1.38-2.15 2.15-3.65s1.31-2.46 1.72-3.88.51-2.25.32-3.25c-.2-.99-.47-1.45-1.3-1.72-.84-.28-1.46-.2-2.86.34-1.39.55-2.33 1.15-4.11 2.36s-2.87 2.11-4.79 3.69c-1.93 1.58-3.05 2.58-4.85 4.21-1.82 1.62-2.79 2.49-4.2 3.92-1.41 1.42-2.08 2.16-2.87 3.18-.78 1.03-.93 1.48-1.04 1.92-.13.44.05.51.43.27s.68-.59 1.43-1.48c.74-.9 1.22-1.6 2.25-3 1.04-1.39 1.83-2.43 2.93-4.01 1.1-1.57 1.77-2.52 2.55-3.88.77-1.37 1.22-2.22 1.32-2.92.09-.71-.19-.92-.84-.61"/><path d="m382.48 6.18c-.3.19-.32.37-.68 1.12s-.56 1.18-1.15 2.6c-.57 1.42-.86 2.41-1.75 4.51-.9 2.09-1.49 3.42-2.7 5.97-1.22 2.56-1.96 4.09-3.39 6.79-1.43 2.71-2.33 4.17-3.75 6.74-1.42 2.58-2.18 3.91-3.33 6.11-1.15 2.21-1.74 3.25-2.42 4.92-.67 1.68-.92 2.42-.95 3.47-.04 1.04.13 1.46.78 1.75.64.3 1.21.29 2.44-.26 1.23-.56 2.02-1.1 3.75-2.5 1.72-1.39 2.69-2.45 4.9-4.49 2.2-2.03 3.46-3.34 6.11-5.66 2.64-2.33 4.19-3.62 7.11-5.97 2.91-2.36 4.52-3.61 7.46-5.8s4.5-3.26 7.21-5.16c2.72-1.88 4.12-2.72 6.4-4.29 2.27-1.56 3.29-2.27 4.97-3.52s2.45-1.83 3.43-2.71c.97-.89 1.21-1.29 1.42-1.74.21-.44.08-.58-.38-.49-.47.1-.81.34-1.95.97s-1.98 1.07-3.74 2.19c-1.76 1.13-2.79 1.85-5.06 3.43-2.26 1.59-3.57 2.55-6.26 4.5-2.69 1.96-4.24 3.06-7.19 5.28-2.95 2.21-4.57 3.46-7.54 5.79-2.97 2.32-4.55 3.6-7.31 5.82s-4.21 3.37-6.5 5.29c-2.3 1.92-3.38 2.87-4.99 4.32s-2.23 2.1-3.05 2.96c-.83.86-.95 1.2-1.07 1.33-.11.12.07 0 .46-.72s.68-1.38 1.49-2.89c.82-1.52 1.39-2.55 2.58-4.7 1.2-2.15 1.94-3.5 3.37-6.05 1.43-2.57 2.28-4.05 3.79-6.75 1.5-2.69 2.39-4.16 3.73-6.72 1.32-2.57 2.01-3.91 2.92-6.08.92-2.17 1.24-3.23 1.64-4.79.41-1.57.4-2.15.4-3.05s-.13-1.13-.37-1.45c-.23-.3-.53-.3-.84-.09"/><path d="m386.75 29.34c-.39.14-.72.4-1.06 1.07-.33.68-.52 1.22-.62 2.32-.11 1.09-.07 1.82.1 3.14.16 1.33.34 2.1.71 3.48.36 1.38.57 2.12 1.08 3.42s.77 1.94 1.47 3.07c.69 1.13 1.03 1.73 2.03 2.58.99.85 1.59 1.25 2.92 1.68s2.1.56 3.73.48 2.54-.28 4.43-.85c1.89-.58 2.93-1.04 5.04-2.04s3.28-1.66 5.49-2.95c2.22-1.28 3.38-2.08 5.58-3.48s3.36-2.17 5.45-3.52 3.22-2.03 5.03-3.22c1.82-1.18 2.68-1.76 4.05-2.7 1.37-.93 1.97-1.28 2.79-1.94s1.1-.9 1.29-1.38c.2-.48.06-.74-.3-.99-.37-.26-.77-.4-1.53-.29-.74.13-1.23.32-2.21.9-.97.58-1.51 1.04-2.67 1.99-1.15.96-1.81 1.53-3.1 2.77-1.3 1.24-2.08 1.99-3.37 3.43-1.3 1.43-1.98 2.27-3.08 3.74-1.1 1.48-1.66 2.26-2.41 3.63s-1.11 2.05-1.37 3.21c-.25 1.17-.23 1.77.1 2.59.33.84.71 1.23 1.55 1.58.83.33 1.45.39 2.64.14 1.18-.26 1.88-.6 3.27-1.41 1.39-.82 2.16-1.45 3.67-2.69 1.51-1.23 2.37-2.02 3.89-3.48 1.53-1.46 2.49-2.43 3.74-3.83 1.23-1.41 1.87-2.22 2.48-3.17.61-.96.67-1.39.57-1.61-.12-.22-.52-.09-1.13.48-.61.56-1.24 1.19-1.91 2.35-.67 1.15-1.1 2.07-1.44 3.43s-.42 2.19-.28 3.39c.14 1.18.32 1.78 1 2.55.68.76 1.19 1.12 2.41 1.29 1.21.16 1.99.1 3.64-.46 1.66-.56 2.63-1.06 4.62-2.34 1.99-1.27 3.14-2.11 5.35-3.99 2.22-1.89 3.42-3.1 5.74-5.43s3.58-3.69 5.84-6.24c2.25-2.54 3.41-3.93 5.44-6.5s3.08-3.91 4.75-6.31c1.67-2.41 2.43-3.63 3.62-5.71s1.65-3.06 2.31-4.68c.66-1.63.89-2.32.98-3.45.09-1.12-.03-1.59-.51-2.17-.48-.57-.96-.81-1.88-.68-.93.12-1.55.36-2.76 1.32-1.22.95-1.9 1.72-3.33 3.44-1.44 1.74-2.25 2.85-3.83 5.19-1.59 2.34-2.46 3.82-4.12 6.51s-2.59 4.2-4.23 6.95-2.5 4.22-3.96 6.79c-1.45 2.58-2.18 3.88-3.33 6.08-1.14 2.2-1.67 3.24-2.39 4.9-.71 1.66-1 2.37-1.17 3.39s-.07 1.38.33 1.7c.41.31.84.28 1.7-.15.86-.44 1.46-.93 2.61-2.01 1.16-1.08 1.79-1.97 3.17-3.39 1.36-1.42 2.18-2.31 3.68-3.69 1.5-1.36 2.41-2.08 3.84-3.15 1.44-1.09 2.2-1.55 3.34-2.22 1.14-.68 1.69-.89 2.4-1.16.7-.26.92-.27 1.15-.17.24.11.18.25.02.72s-.35.79-.81 1.64c-.46.83-.78 1.42-1.48 2.55-.71 1.15-1.18 1.88-2.05 3.15-.86 1.27-1.43 2.02-2.28 3.21-.85 1.21-1.36 1.8-1.98 2.8-.63 1-.93 1.44-1.15 2.19-.21.76-.22 1.09.06 1.57.27.47.59.74 1.33.85.74.1 1.27.07 2.37-.31s1.73-.77 3.13-1.59c1.38-.82 2.17-1.36 3.8-2.5s2.57-1.84 4.36-3.21c1.79-1.38 2.76-2.14 4.6-3.68s2.81-2.38 4.61-4.02c1.8-1.65 2.71-2.5 4.37-4.19 1.66-1.68 2.46-2.56 3.93-4.24 1.48-1.68 2.17-2.56 3.43-4.2 1.27-1.64 1.85-2.47 2.89-4.01 1.03-1.53 1.48-2.3 2.28-3.68s1.15-2.07 1.74-3.2.93-1.58 1.21-2.45.28-1.44.2-1.89c-.09-.44-.49-.3-.64-.33-.15-.04-.02.14-.09.15-.07 0 .02-.32-.26-.09-.27.24-.65.54-1.12 1.25s-.65 1.23-1.25 2.31-.95 1.76-1.74 3.09c-.8 1.33-1.23 2.07-2.24 3.55s-1.59 2.27-2.83 3.86-1.92 2.44-3.37 4.07c-1.45 1.64-2.23 2.47-3.87 4.09-1.64 1.63-2.54 2.47-4.32 4.06-1.78 1.58-2.75 2.39-4.58 3.88-1.84 1.49-2.8 2.22-4.57 3.54-1.78 1.31-2.71 1.97-4.32 3.04s-2.42 1.52-3.72 2.3-1.93 1.06-2.8 1.59-1.19.76-1.56 1.09c-.37.34-.37.56-.27.6.09.04.3 0 .76-.41s.78-.81 1.53-1.65c.75-.86 1.27-1.44 2.21-2.6.93-1.15 1.54-1.88 2.49-3.19.94-1.29 1.49-2.02 2.21-3.3.73-1.28 1.1-1.94 1.42-3.09.32-1.14.36-1.75.18-2.64-.19-.87-.47-1.32-1.13-1.77-.67-.45-1.15-.56-2.19-.47-1.05.09-1.7.31-3.06.92-1.37.62-2.18 1.09-3.78 2.13-1.59 1.05-2.55 1.77-4.2 3.11-1.66 1.34-2.62 2.18-4.07 3.61-1.45 1.42-2.23 2.27-3.21 3.52-.98 1.24-1.33 1.94-1.7 2.73-.36.79-.27 1.16-.11 1.22.16.07.39-.09.9-.87.5-.77.81-1.47 1.63-3.01.83-1.56 1.35-2.59 2.51-4.74s1.87-3.47 3.31-6.02c1.43-2.56 2.23-4.05 3.87-6.76 1.65-2.72 2.58-4.21 4.33-6.81 1.75-2.59 2.78-3.94 4.41-6.17 1.64-2.23 2.45-3.32 3.78-5 1.32-1.68 1.97-2.37 2.85-3.39s1.14-1.36 1.54-1.75c.4-.4.42-.45.45-.24.04.2.01.44-.29 1.29-.3.84-.5 1.47-1.22 2.94-.72 1.46-1.19 2.4-2.38 4.38s-1.96 3.17-3.58 5.53c-1.62 2.37-2.56 3.76-4.54 6.29-1.97 2.54-3.12 3.92-5.36 6.4-2.24 2.47-3.52 3.8-5.86 6s-3.64 3.25-5.84 5c-2.2 1.74-3.3 2.53-5.15 3.73-1.84 1.21-2.72 1.66-4.05 2.3-1.34.64-1.85.78-2.63.89-.77.11-.97 0-1.22-.34-.26-.36-.25-.68-.04-1.47.19-.79.54-1.34 1.03-2.44.5-1.11.99-1.88 1.41-3.1.41-1.21.66-2.06.67-2.97.03-.91-.08-1.39-.58-1.59-.51-.2-.95-.06-1.95.6-.99.65-1.67 1.4-3.03 2.67s-2.24 2.27-3.72 3.68c-1.49 1.4-2.32 2.18-3.74 3.35-1.42 1.18-2.19 1.7-3.36 2.5-1.18.81-1.74 1.11-2.54 1.54-.81.43-1.08.55-1.48.58s-.49-.04-.51-.44c-.02-.41.02-.75.39-1.58.37-.84.68-1.43 1.47-2.59.77-1.18 1.33-1.92 2.43-3.26 1.09-1.35 1.78-2.14 3.04-3.48 1.27-1.35 2.04-2.08 3.29-3.24s1.87-1.72 2.97-2.58c1.1-.85 1.7-1.09 2.54-1.7.83-.61 1.19-.84 1.64-1.33.44-.49.54-.82.56-1.15.03-.33-.04-.52-.47-.5s-.76.14-1.69.59c-.92.45-1.53.85-2.94 1.7s-2.29 1.4-4.13 2.54c-1.85 1.13-2.98 1.81-5.1 3.12-2.11 1.31-3.28 2.08-5.48 3.45-2.2 1.36-3.37 2.13-5.54 3.36-2.17 1.24-3.33 1.87-5.33 2.84s-2.98 1.42-4.67 2c-1.7.58-2.46.78-3.81.91-1.34.15-1.9.08-2.91-.2s-1.41-.53-2.13-1.19c-.72-.65-.96-1.12-1.46-2.09-.51-.97-.72-1.57-1.1-2.76-.38-1.2-.54-1.92-.79-3.19-.25-1.28-.34-2.02-.47-3.2-.14-1.19-.13-1.81-.18-2.74s-.05-1.3-.1-1.91c-.04-.62.08-.87-.13-1.18-.2-.3-.5-.51-.89-.37"/><path d="m494.71 7.64c-.53.18-1.04.55-1.91 1.49s-1.43 1.65-2.44 3.19c-1.01 1.55-1.6 2.59-2.59 4.54-.99 1.94-1.43 3.06-2.4 5.18-.96 2.11-1.48 3.27-2.4 5.41-.93 2.13-1.43 3.27-2.22 5.25-.79 1.99-1.2 2.99-1.74 4.68-.55 1.7-.78 2.52-.99 3.8-.2 1.29-.25 1.84-.03 2.63.24.8.51 1.11 1.17 1.36.67.25 1.15.25 2.14-.1s1.57-.75 2.84-1.66c1.27-.92 2-1.64 3.49-2.89 1.5-1.25 2.39-2.05 4-3.39 1.61-1.33 2.54-2.09 4.06-3.3 1.53-1.21 2.34-1.83 3.6-2.76 1.25-.93 1.85-1.3 2.64-1.88.8-.6 1.08-.81 1.33-1.09.23-.27.14-.37-.12-.28-.24.08-.56.18-1.12.68-.57.5-.96.91-1.69 1.84-.75.93-1.18 1.62-2.04 2.81-.85 1.19-1.38 1.87-2.23 3.13s-1.38 1.95-2.03 3.17c-.63 1.21-.94 1.82-1.17 2.9-.22 1.08-.25 1.63.05 2.48.31.85.63 1.27 1.44 1.77.82.49 1.41.66 2.65.72 1.23.06 1.98-.06 3.53-.44 1.56-.37 2.47-.72 4.25-1.45 1.76-.73 2.75-1.24 4.61-2.2 1.87-.97 2.88-1.54 4.71-2.62 1.83-1.07 2.8-1.67 4.45-2.74 1.65-1.06 2.46-1.64 3.8-2.59s1.97-1.4 2.89-2.16 1.3-1.07 1.7-1.64.5-.91.3-1.22c-.19-.31-.55-.53-1.27-.32-.73.2-1.36.51-2.36 1.33-1 .83-1.63 1.51-2.66 2.8-1.04 1.28-1.69 2.15-2.55 3.64-.87 1.49-1.36 2.35-1.8 3.77s-.53 2.17-.36 3.34.44 1.76 1.2 2.52 1.37 1.07 2.58 1.3c1.22.23 2.03.19 3.49-.17 1.47-.35 2.34-.74 3.85-1.59 1.5-.84 2.33-1.46 3.67-2.67 1.33-1.22 2.03-1.97 3-3.4.97-1.42 1.44-2.27 1.87-3.73s.48-2.27.28-3.61c-.19-1.32-.49-2.03-1.26-3.05-.75-1.02-1.39-1.47-2.51-2.05-1.12-.57-1.92-.73-3.1-.81-1.17-.08-1.9.03-2.78.43-.89.39-1.37.87-1.64 1.58s-.22 1.31.3 2.01c.52.69 1.03 1.07 2.28 1.46 1.24.4 2.08.5 3.92.54 1.84.05 3.01-.05 5.27-.29s3.57-.5 6-.92c2.43-.41 3.74-.7 6.15-1.12 2.41-.44 3.69-.65 5.88-1.03s3.33-.57 5.06-.89c1.72-.33 2.45-.45 3.55-.72 1.11-.28 1.6-.39 1.98-.66s.37-.49-.06-.68c-.44-.2-.93-.25-2.09-.29-1.16-.05-1.94-.1-3.71.06-1.76.16-2.93.39-5.13.72-2.21.33-3.5.55-5.92.93-2.41.39-3.73.65-6.14.99-2.4.34-3.69.55-5.85.74s-3.28.2-4.96.22-2.39-.05-3.43-.11c-1.04-.07-1.37-.14-1.76-.2s-.37-.04-.19-.07c.19-.05.51-.09 1.13-.13.61-.05 1.1-.16 1.96-.08.85.07 1.46.13 2.28.46.83.33 1.31.56 1.86 1.2.55.65.77 1.09.86 2.03.1.93.04 1.51-.39 2.63-.42 1.12-.84 1.81-1.74 2.98-.89 1.16-1.54 1.83-2.74 2.86-1.2 1.02-1.97 1.53-3.26 2.27-1.3.74-2.06 1.03-3.22 1.42-1.16.4-1.73.52-2.56.56s-1.18-.02-1.59-.38c-.42-.35-.56-.64-.52-1.4.04-.75.19-1.28.72-2.36.53-1.09 1.02-1.83 1.93-3.08s1.61-2 2.61-3.17 1.63-1.71 2.4-2.65 1.17-1.38 1.46-2.04c.27-.66.18-1-.08-1.23-.26-.24-.59-.21-1.22.04s-.97.57-1.94 1.2c-.98.63-1.59 1.07-2.94 1.95s-2.16 1.42-3.8 2.42c-1.65 1-2.61 1.58-4.42 2.59s-2.82 1.56-4.63 2.46c-1.82.9-2.77 1.36-4.45 2.03-1.67.68-2.54.95-3.9 1.34-1.37.4-1.98.52-2.92.66-.94.15-1.3.19-1.79.09-.49-.09-.61-.14-.66-.54-.04-.39.06-.69.4-1.42s.64-1.25 1.33-2.26c.69-1.02 1.21-1.67 2.1-2.83.9-1.15 1.47-1.8 2.38-2.95s1.48-1.74 2.17-2.78 1.01-1.54 1.26-2.41c.26-.86.25-1.33.04-1.88-.22-.55-.48-.8-1.1-.88-.64-.09-1.06.02-2.07.45-1.02.43-1.63.83-3 1.7-1.37.86-2.21 1.46-3.82 2.62s-2.56 1.9-4.25 3.19c-1.67 1.29-2.63 2.03-4.15 3.26s-2.33 1.89-3.45 2.88-1.56 1.47-2.14 2.09c-.59.61-.67.86-.82.97-.14.11-.06.07.09-.43.14-.5.27-.96.63-2.07.35-1.11.55-1.9 1.14-3.5.6-1.61 1.01-2.58 1.83-4.51.82-1.94 1.33-3.06 2.29-5.15.95-2.1 1.47-3.26 2.46-5.33 1-2.06 1.51-3.11 2.52-4.99 1-1.87 1.64-2.82 2.51-4.39.86-1.56 1.28-2.3 1.81-3.41.54-1.11.85-1.59.87-2.14.02-.54-.23-.76-.77-.59"/><path d="m21.03 96.32c-.3.19-.33.32-.67 1.02-.32.71-.51 1.13-.97 2.5-.47 1.37-.67 2.34-1.33 4.37s-1.04 3.33-1.95 5.81-1.49 3.92-2.61 6.6-1.81 4.17-3.01 6.82c-1.19 2.64-1.86 4.05-2.96 6.39-1.09 2.35-1.65 3.54-2.5 5.35-.87 1.81-1.26 2.57-1.81 3.7-.55 1.12-.72 1.43-.95 1.94-.25.51-.17.51-.27.61-.09.08-.11-.22-.21-.16-.1.05-.36.25-.29.43.06.17.28.44.64.43.37 0 .64 0 1.18-.45.55-.45.81-.74 1.56-1.84.74-1.1 1.2-1.85 2.17-3.63.98-1.79 1.57-2.98 2.71-5.32 1.14-2.35 1.78-3.77 3.01-6.42 1.22-2.65 1.91-4.15 3.12-6.84 1.2-2.69 1.88-4.1 2.89-6.61 1-2.5 1.47-3.82 2.13-5.92.67-2.1.93-3.09 1.2-4.58s.21-2.03.17-2.85c-.05-.82-.17-1-.42-1.27s-.53-.28-.82-.09"/><path d="m.94 101.03c.4.12.57.03 1.64-.15 1.08-.17 1.78-.3 3.69-.7 1.92-.4 3.2-.68 5.89-1.27 2.69-.6 4.38-1.03 7.54-1.71 3.17-.69 4.99-1.08 8.31-1.72s5.15-.95 8.32-1.48c3.16-.53 4.81-.74 7.49-1.15s3.96-.64 5.91-.92c1.95-.29 2.73-.33 3.87-.53 1.13-.2 1.34-.35 1.78-.48.43-.13.28-.09.38-.17s.16-.08.09-.23c-.06-.15.04-.32-.43-.49-.47-.18-.75-.33-1.94-.38-1.19-.04-1.99-.02-4 .16-2.01.17-3.3.29-6.01.71-2.7.41-4.34.76-7.52 1.33-3.17.57-4.99.9-8.34 1.49-3.34.6-5.15.95-8.37 1.48-3.21.54-4.96.65-7.69 1.17-2.74.53-4.07.85-6 1.45s-2.66 1.01-3.65 1.59-1.13.87-1.32 1.27-.04.63.36.75"/><path d="m8.82 116.61c.34.26.6.42 1.63.46 1.03.06 1.79.07 3.52-.2 1.71-.28 2.87-.59 5.09-1.17 2.23-.59 3.58-1.06 6.03-1.79 2.44-.72 3.79-1.15 6.23-1.86 2.42-.71 3.69-1.1 5.91-1.68 2.22-.59 3.33-.85 5.17-1.27 1.85-.43 2.68-.6 4.04-.88 1.37-.28 2.24-.25 2.81-.52.56-.27.59-.58 0-.84-.6-.27-1.51-.46-2.97-.47-1.46 0-2.39.12-4.31.44-1.93.32-3.06.61-5.32 1.16s-3.55.92-6.01 1.57c-2.46.64-3.82 1.02-6.28 1.66-2.47.65-3.84.99-6.03 1.56s-3.32.81-4.95 1.26c-1.63.46-2.28.68-3.21 1.02-.91.34-1.13.4-1.39.71s-.27.59.07.85"/><path d="m55.45 119.89c-.42.22-.65.64-1.17 1.46-.52.81-.86 1.4-1.43 2.62-.58 1.22-.95 2.1-1.47 3.49-.52 1.38-.8 2.17-1.12 3.45s-.52 1.97-.5 2.94c.03.97.33 1.4.62 1.9.28.5.55.55.8.61s.36-.1.44-.28c.1-.19-.04-.26 0-.66s0-.59.21-1.34c.22-.74.41-1.27.87-2.37.45-1.1.85-1.82 1.42-3.15.57-1.32.99-2.19 1.43-3.48.45-1.28.63-1.97.79-2.94.17-.97.19-1.48 0-1.92-.18-.46-.51-.56-.93-.33"/><path d="m67.84 100.76c.36.11.59 0 .61 0s-.26-.04-.49.03c-.22.07-.55.3-.63.31-.09 0-.02-.02.19-.31.21-.31.75-.81.86-1.18.11-.36-.01-.61-.3-.67-.27-.07-.73.19-1.08.34-.37.15-.64.24-.71.42-.08.19.06.33.36.54.32.21.83.42 1.18.53"/><path d="m84.72 98.22c-.38.2-.48.45-1.08 1.32-.59.86-.96 1.43-1.91 3.01s-1.58 2.7-2.84 4.89c-1.28 2.2-2.07 3.6-3.51 6.1s-2.36 3.9-3.69 6.36c-1.33 2.47-2.07 3.81-2.97 5.99-.89 2.18-1.27 3.25-1.48 4.94-.2 1.69-.14 2.43.44 3.49.59 1.05 1.17 1.45 2.48 1.75 1.31.29 2.21.2 4.07-.29 1.87-.48 3.01-.99 5.27-2.11 2.25-1.12 3.59-1.99 6.05-3.48 2.44-1.49 3.84-2.45 6.22-3.97 2.36-1.51 3.64-2.35 5.63-3.59 1.98-1.24 3.03-1.84 4.27-2.61 1.25-.77 1.68-1.06 1.96-1.24.29-.19 0-.14-.54.34-.55.47-1.19.95-2.2 2.04s-1.75 2-2.86 3.42-1.81 2.32-2.67 3.67c-.85 1.34-1.32 2.06-1.61 3.04-.28.99-.24 1.47.21 1.88.46.41.93.49 2.07.2 1.12-.29 1.94-.71 3.57-1.62s2.65-1.71 4.58-2.92c1.93-1.22 3.1-2.01 5.07-3.15 1.97-1.15 3.17-1.77 4.78-2.59s2.38-1.17 3.27-1.53c.88-.36 1.1-.42 1.16-.28s-.24.36-.84.98-1.25 1.16-2.15 2.14c-.9.99-1.6 1.69-2.34 2.8-.74 1.1-1.18 1.81-1.38 2.71-.2.91-.17 1.41.36 1.81.54.41 1.05.46 2.31.19s2.15-.71 3.98-1.57c1.83-.85 2.99-1.6 5.17-2.72 2.16-1.11 3.48-1.82 5.68-2.83 2.21-1 3.42-1.51 5.34-2.19 1.9-.67 2.89-.91 4.21-1.17 1.31-.25 1.8-.27 2.37-.13s.54.32.45.88c-.1.56-.43.99-.9 1.94s-.93 1.62-1.49 2.82c-.55 1.19-.94 1.96-1.3 3.16-.37 1.2-.51 1.85-.52 2.81-.02.97.17 1.45.44 2.01.27.57.61.74.9.84s.48-.09.58-.32-.1-.39-.06-.84c.04-.44.03-.66.26-1.38.23-.71.39-1.16.88-2.16.49-1.01 1-1.65 1.55-2.88.54-1.23.94-2.01 1.19-3.26.24-1.24.32-1.95.05-2.93s-.52-1.46-1.44-1.98c-.91-.52-1.59-.67-3.17-.62s-2.65.28-4.73.85c-2.08.58-3.34 1.08-5.67 2.01s-3.72 1.55-5.97 2.61c-2.25 1.05-3.51 1.69-5.25 2.68-1.75.99-2.55 1.56-3.48 2.26s-1.13 1.04-1.17 1.26.31.21.96-.15c.65-.38 1.35-.79 2.29-1.72.94-.92 1.63-1.7 2.41-2.91s1.24-2.04 1.48-3.15c.25-1.12.24-1.76-.25-2.41-.5-.66-.98-.91-2.22-.9-1.24 0-2.14.27-3.97.95-1.82.66-3.05 1.31-5.13 2.38-2.09 1.08-3.35 1.81-5.34 3-1.98 1.19-3.11 1.88-4.61 2.94-1.5 1.08-2.17 1.67-2.91 2.4-.74.72-.83 1.07-.78 1.22.04.14.37.04 1.04-.51.67-.56 1.23-1.13 2.31-2.26 1.06-1.12 1.9-1.93 3.04-3.35 1.14-1.43 1.86-2.39 2.63-3.76.76-1.39 1.09-2.18 1.18-3.16.1-.98.02-1.45-.7-1.75-.73-.3-1.4-.28-2.92.23s-2.59 1.14-4.69 2.29-3.38 2-5.78 3.46c-2.41 1.46-3.81 2.4-6.25 3.83-2.43 1.43-3.78 2.19-5.91 3.3s-3.18 1.61-4.76 2.26c-1.56.66-2.2.92-3.11 1-.91.07-1.18 0-1.42-.63-.24-.62-.16-1.14.24-2.51.4-1.36.78-2.34 1.76-4.34s1.71-3.29 3.08-5.67 2.28-3.79 3.77-6.22c1.5-2.45 2.44-3.79 3.74-6s1.95-3.36 2.75-5.09c.79-1.72.97-2.44 1.24-3.52.25-1.08.21-1.42.05-1.84-.15-.43-.44-.5-.82-.29"/><path d="m208.5 99.57c-.33.26-.41.52-.79 1.41-.39.88-.58 1.45-1.14 3.02-.55 1.56-.84 2.64-1.65 4.81-.82 2.17-1.33 3.47-2.44 6.02-1.12 2.56-1.79 4.06-3.12 6.74-1.34 2.67-2.15 4.13-3.52 6.63s-2.13 3.79-3.34 5.85c-1.21 2.05-1.85 3.05-2.71 4.43-.87 1.37-1.22 1.91-1.63 2.46-.41.54-.41.62-.38.26 0-.35.19-.79.44-2.04.26-1.25.39-2.2.82-4.2s.64-3.32 1.34-5.8c.7-2.5 1.11-3.96 2.15-6.67 1.03-2.72 1.66-4.2 3.04-6.92 1.37-2.72 2.18-4.13 3.84-6.66s2.58-3.79 4.48-6.01c1.89-2.22 2.95-3.27 5-5.06 2.04-1.78 3.15-2.61 5.22-3.87 2.07-1.25 3.15-1.75 5.12-2.41 1.97-.67 3.01-.82 4.75-.9s2.56.06 3.92.5 1.98.83 2.86 1.68 1.25 1.38 1.54 2.55c.29 1.16.28 1.82-.1 3.28-.38 1.47-.74 2.34-1.82 4.03s-1.85 2.67-3.57 4.41c-1.73 1.75-2.88 2.7-5.06 4.32s-3.51 2.46-5.84 3.78c-2.33 1.34-3.64 1.97-5.78 2.89-2.15.91-3.25 1.25-4.92 1.72-1.68.47-2.38.47-3.44.64-1.05.17-1.44.03-1.83.19-.38.17-.45.36-.09.62.38.26.77.56 1.94.7 1.16.13 2.04.31 3.89-.01s3.06-.71 5.36-1.62c2.29-.9 3.66-1.53 6.12-2.88s3.86-2.19 6.17-3.89c2.31-1.69 3.55-2.68 5.39-4.58 1.84-1.91 2.7-3 3.85-4.95 1.15-1.97 1.54-3.02 1.89-4.87.36-1.84.31-2.78-.13-4.34-.45-1.57-.98-2.36-2.12-3.49-1.16-1.14-1.99-1.62-3.64-2.19-1.66-.58-2.67-.73-4.68-.68-2 .06-3.18.24-5.37.94-2.2.7-3.37 1.24-5.62 2.58-2.24 1.32-3.44 2.17-5.59 4.07-2.15 1.88-3.21 3.05-5.16 5.38-1.96 2.32-2.89 3.62-4.62 6.24-1.73 2.61-2.55 4.05-4.03 6.83-1.47 2.78-2.16 4.27-3.33 7.03-1.18 2.77-1.73 4.23-2.55 6.8s-1.18 3.92-1.52 6.07c-.36 2.15-.41 3.21-.25 4.68.17 1.48.44 2.09 1.05 2.68s1.1.64 2.02.24c.91-.4 1.45-.93 2.57-2.26 1.13-1.34 1.75-2.36 3.06-4.43 1.31-2.06 2.07-3.37 3.48-5.89s2.16-4.02 3.57-6.71c1.4-2.67 2.21-4.13 3.43-6.71 1.22-2.57 1.79-3.89 2.64-6.14.85-2.24 1.2-3.37 1.6-5.06s.39-2.38.41-3.4c.03-1.02-.07-1.33-.31-1.69s-.54-.39-.87-.13"/><path d="m245.77 94.84c-.32.11-.37.19-.82.81-.46.61-.72.95-1.46 2.26-.75 1.3-1.17 2.26-2.27 4.28-1.1 2.03-1.78 3.34-3.24 5.82s-2.37 3.99-4.06 6.56c-1.68 2.57-2.75 3.96-4.35 6.31-1.59 2.36-2.5 3.57-3.64 5.46-1.13 1.88-1.65 2.75-2.01 3.96-.35 1.21-.28 1.68.24 2.08.51.4 1.11.37 2.34-.07s2.14-1.02 3.82-2.13c1.68-1.12 2.7-2.06 4.59-3.44 1.89-1.39 2.98-2.28 4.83-3.51s2.88-1.83 4.41-2.6c1.54-.78 2.28-1.04 3.28-1.26s1.32-.19 1.73.14c.42.32.38.66.37 1.49-.02.83-.26 1.46-.45 2.65s-.42 2.01-.51 3.33c-.1 1.32-.18 2.11.06 3.27s.41 1.77 1.13 2.54c.71.77 1.22 1.12 2.43 1.3 1.2.19 2 .09 3.63-.37 1.62-.45 2.57-.93 4.48-1.9 1.91-.98 3-1.69 5.04-2.96 2.05-1.28 3.21-2.1 5.19-3.43 1.98-1.34 3.04-2.09 4.71-3.23s2.56-1.62 3.65-2.47c1.1-.85 1.56-1.28 1.83-1.75.26-.48.07-.7-.52-.63-.58.07-1.24.27-2.4 1-1.15.72-2.01 1.37-3.35 2.63-1.34 1.27-2.14 2.23-3.34 3.7-1.21 1.47-1.88 2.29-2.67 3.65-.79 1.37-1.13 2.08-1.3 3.16-.16 1.09-.06 1.64.47 2.3.52.66 1.1.92 2.14 1.01s1.79-.04 3.09-.55c1.3-.5 2.06-1 3.4-1.97s2.1-1.67 3.3-2.9c1.2-1.24 1.8-1.98 2.69-3.28.89-1.29 1.32-1.98 1.76-3.18s.52-1.84.44-2.81c-.08-.98-.37-1.43-.83-2.05-.45-.61-.87-.9-1.45-1.03-.56-.13-1.08.02-1.39.37-.3.36-.42.96-.13 1.43.28.47.65.79 1.57.95s1.57.13 3.05-.18c1.46-.31 2.37-.61 4.28-1.34s3.03-1.23 5.29-2.34c2.25-1.1 3.54-1.77 5.98-3.16 2.45-1.41 3.77-2.27 6.24-3.85 2.47-1.59 3.79-2.45 6.11-4.08s3.54-2.54 5.49-4.04 2.91-2.26 4.29-3.5c1.39-1.24 2.04-1.91 2.66-2.71.6-.8.66-1.22.39-1.29-.28-.07-.77.05-1.79.93-1.01.88-1.79 1.65-3.3 3.51-1.5 1.85-2.39 3.24-4.2 5.74-1.81 2.49-2.88 4.07-4.84 6.76s-3.11 4.15-4.94 6.68c-1.83 2.52-2.79 3.82-4.19 5.95s-1.98 3.15-2.79 4.71c-.81 1.55-1.06 2.17-1.25 3.06-.18.9-.03 1.14.32 1.42.36.29.79.24 1.45.02.65-.24 1.18-.54 1.85-1.17.67-.65.98-1.24 1.51-2.04s.71-1.31 1.13-1.93c.42-.63.59-.87.97-1.2.38-.32.48-.37.95-.41.48-.04.67.09 1.44.2.76.09 1.24.26 2.39.29 1.16.02 1.88.02 3.4-.14 1.52-.18 2.4-.34 4.18-.7 1.79-.36 2.82-.6 4.74-1.13 1.93-.53 3.01-.88 4.89-1.52 1.89-.64 2.9-1.01 4.51-1.65 1.63-.64 2.44-.93 3.6-1.53 1.16-.59 1.69-.86 2.2-1.43.51-.58.63-1.06.35-1.44-.29-.39-.78-.62-1.79-.5s-1.82.38-3.3 1.13c-1.47.75-2.45 1.38-4.1 2.6-1.64 1.23-2.66 2.07-4.14 3.52-1.48 1.46-2.27 2.29-3.23 3.74-.98 1.44-1.37 2.22-1.62 3.5-.25 1.27-.16 1.92.36 2.85.53.94 1.07 1.38 2.29 1.8 1.23.41 2.13.48 3.82.26 1.69-.21 2.73-.57 4.61-1.34 1.89-.78 2.98-1.38 4.81-2.55 1.82-1.16 2.83-1.92 4.33-3.29 1.49-1.36 2.21-2.15 3.14-3.54.93-1.37 1.26-2.13 1.5-3.35.24-1.23.12-1.84-.3-2.76-.41-.93-.89-1.36-1.77-1.87-.87-.5-1.59-.69-2.6-.67s-1.75.25-2.47.8c-.73.55-1.08 1.14-1.14 1.95-.06.8.1 1.41.83 2.09.74.69 1.35 1.02 2.83 1.35 1.48.34 2.47.38 4.56.34s3.41-.22 5.89-.54c2.49-.32 3.92-.57 6.58-1.04 2.66-.46 4.32-.76 6.73-1.28 2.41-.53 3.6-.84 5.31-1.34 1.7-.5 2.59-.79 3.21-1.18.61-.38.57-.62-.15-.77-.71-.13-1.64-.08-3.41.06-1.77.13-3 .26-5.44.61-2.43.35-4.08.72-6.72 1.14-2.63.42-4.03.68-6.45.96-2.41.28-3.69.36-5.63.44-1.95.08-2.83.02-4.08-.05-1.25-.08-1.66-.19-2.2-.31s-.53-.2-.47-.29c.07-.08.34-.05.81-.13s.91-.2 1.54-.26c.64-.07 1.1-.18 1.64-.04.54.13.88.24 1.1.69.22.46.3.79 0 1.6-.31.82-.63 1.4-1.53 2.48-.9 1.09-1.58 1.79-3 2.96-1.42 1.16-2.39 1.85-4.1 2.88-1.71 1.02-2.76 1.54-4.45 2.26-1.69.71-2.62.98-4 1.33s-2.03.42-2.9.38c-.87-.03-1.18-.11-1.44-.55-.26-.42-.24-.74.13-1.57.38-.83.77-1.44 1.76-2.57.99-1.14 1.75-1.89 3.21-3.13 1.45-1.25 2.48-1.97 4.06-3.07 1.58-1.09 2.55-1.57 3.84-2.42 1.29-.84 1.93-1.21 2.62-1.81.68-.6.83-.92.79-1.2s-.32-.29-.98-.2c-.66.1-1.13.3-2.3.7-1.18.39-1.97.71-3.58 1.26s-2.62.9-4.48 1.49c-1.86.57-2.91.91-4.79 1.41-1.87.49-2.87.71-4.59 1.05-1.7.33-2.55.47-3.97.65-1.41.18-2.02.18-3.09.24-1.09.06-1.48-.01-2.31.05s-1.13.07-1.83.24-.98.26-1.67.62c-.68.37-1.03.59-1.72 1.17-.7.58-1.12.99-1.77 1.72-.66.75-1.08 1.23-1.51 2-.44.78-.56 1.3-.67 1.88-.13.57-.09.91.07.99s.25.02.74-.62.77-1.19 1.71-2.6c.93-1.4 1.55-2.37 2.96-4.43 1.42-2.07 2.31-3.41 4.12-5.91s2.92-4 4.95-6.62c2.02-2.63 3.24-4.09 5.16-6.5s3.03-3.62 4.44-5.55c1.39-1.93 1.98-2.84 2.57-4.09.59-1.26.64-1.78.38-2.21-.26-.42-.72-.4-1.68.05-.96.44-1.62 1.08-3.11 2.19s-2.36 1.89-4.31 3.33c-1.96 1.45-3.18 2.32-5.47 3.9-2.3 1.59-3.58 2.5-6.02 4.03-2.45 1.53-3.8 2.29-6.21 3.62-2.42 1.32-3.67 1.97-5.87 3-2.19 1.02-3.29 1.47-5.1 2.13-1.8.66-2.67.84-3.94 1.19s-1.75.35-2.43.55-.76.2-.95.43c-.2.24-.12.52-.04.75.08.22.21.24.42.36.21.13.45 0 .66.26.2.27.4.46.36 1.04-.06.59-.13 1.01-.6 1.91-.47.89-.89 1.48-1.77 2.56-.87 1.07-1.46 1.76-2.6 2.81-1.13 1.07-1.89 1.65-3.09 2.52-1.19.87-1.88 1.26-2.88 1.83-1 .58-1.47.82-2.09 1.08s-.88.37-1.03.21-.08-.35.32-1.02c.38-.66.74-1.22 1.63-2.3s1.55-1.83 2.82-3.09c1.26-1.26 2.23-1.97 3.51-3.21s2.05-1.93 2.89-2.99 1.21-1.66 1.32-2.32c.12-.67-.05-.99-.72-1.04-.65-.05-1.27.17-2.55.77-1.28.61-2.12 1.19-3.86 2.26-1.73 1.06-2.82 1.81-4.83 3.08-2 1.27-3.17 2.05-5.19 3.27s-3.13 1.87-4.9 2.82c-1.79.95-2.67 1.38-4 1.95-1.34.57-1.9.78-2.69.88-.78.1-.96.02-1.24-.38-.28-.41-.2-.77-.13-1.66.07-.88.29-1.54.48-2.78.18-1.23.42-2.07.45-3.4s.05-2.13-.31-3.24c-.37-1.11-.64-1.69-1.5-2.3-.87-.62-1.43-.82-2.8-.79-1.36.02-2.23.25-4.02.93-1.78.67-2.88 1.29-4.9 2.44-2.01 1.16-3.21 1.97-5.18 3.33-1.97 1.35-3.11 2.17-4.66 3.43-1.54 1.27-2.26 2.05-3.07 2.89-.81.86-.98 1.29-.99 1.38 0 .09.24-.07.94-.93.7-.87 1.27-1.65 2.54-3.39s2.17-2.96 3.78-5.3c1.62-2.33 2.6-3.79 4.34-6.37 1.74-2.56 2.8-4 4.38-6.47s2.38-3.78 3.5-5.86 1.56-3.08 2.12-4.54c.56-1.45.57-1.94.67-2.75.1-.8.03-.95-.15-1.26-.19-.3-.45-.36-.77-.24"/><path d="m438.07 95.53c-.09-.41-.31-.75-.93-1.18-.61-.42-1.09-.69-2.13-.93-1.06-.23-1.73-.35-3.12-.26-1.39.08-2.18.23-3.83.7s-2.62.81-4.44 1.64c-1.82.82-2.9 1.37-4.66 2.48-1.75 1.11-2.74 1.78-4.14 3.07-1.41 1.28-2.12 2.02-2.9 3.38-.77 1.36-.99 2.07-.97 3.4.02 1.34.28 2.02 1.07 3.26.79 1.22 1.47 1.83 2.88 2.88 1.41 1.07 2.41 1.51 4.16 2.43 1.74.91 2.82 1.3 4.57 2.14 1.76.84 2.73 1.24 4.21 2.05 1.48.8 2.23 1.23 3.18 1.99s1.31 1.1 1.55 1.84c.25.73.19 1.07-.33 1.86-.5.79-.99 1.21-2.21 2.11-1.23.9-2.13 1.44-3.9 2.39-1.78.96-2.94 1.53-5 2.4-2.05.87-3.26 1.32-5.26 1.94s-3.06.87-4.73 1.15c-1.67.29-2.48.32-3.63.27-1.16-.06-1.61-.21-2.15-.57-.55-.37-.66-.6-.6-1.23.07-.63.27-1 .95-1.92.69-.92 1.18-1.5 2.5-2.69 1.31-1.2 2.17-1.9 4.05-3.29 1.88-1.38 3.03-2.12 5.34-3.63 2.3-1.52 3.6-2.34 6.2-3.92 2.59-1.57 4.02-2.4 6.76-3.97 2.72-1.58 4.17-2.37 6.89-3.91 2.7-1.54 4.11-2.28 6.63-3.78s3.8-2.26 5.99-3.71c2.2-1.44 3.25-2.17 5-3.5 1.75-1.32 2.55-1.98 3.76-3.13 1.2-1.16 1.71-1.7 2.26-2.62.56-.92.64-1.38.51-1.96-.12-.59-.47-.91-1.14-.98-.66-.07-1.23.02-2.19.62-.97.61-1.52 1.18-2.62 2.44s-1.68 2.12-2.89 3.89c-1.21 1.76-1.9 2.83-3.15 4.93-1.25 2.09-1.92 3.32-3.09 5.55-1.18 2.23-1.77 3.45-2.77 5.61-1.01 2.15-1.54 3.27-2.27 5.17s-1.09 2.83-1.39 4.31c-.29 1.5-.35 2.19-.09 3.14.25.94.56 1.32 1.35 1.6.8.27 1.41.23 2.6-.21 1.19-.43 1.91-.95 3.36-1.96 1.45-1.02 2.29-1.82 3.89-3.09s2.61-2.11 4.09-3.28 2.3-1.81 3.33-2.56c1.03-.77 1.42-1.05 1.84-1.24.43-.19.4-.11.28.28-.12.4-.5.8-.89 1.71-.38.92-.76 1.64-1.04 2.86s-.42 2.02-.36 3.25c.06 1.22.13 1.93.67 2.85s.97 1.38 2.03 1.79 1.76.49 3.26.28 2.39-.54 4.2-1.31 2.87-1.39 4.86-2.56c1.99-1.18 3.12-1.96 5.1-3.29s3.05-2.14 4.79-3.39c1.74-1.24 2.65-1.84 3.9-2.83 1.26-.98 1.87-1.48 2.39-2.1.53-.61.53-.93.21-1.01-.32-.07-.88.03-1.8.64-.94.61-1.69 1.21-2.83 2.44s-1.86 2.19-2.89 3.69c-1.03 1.52-1.62 2.42-2.26 3.86s-.88 2.18-.94 3.32.09 1.68.63 2.38c.55.71 1.06.99 2.09 1.15 1.01.15 1.74.06 2.99-.4s2.01-.94 3.27-1.9 1.94-1.64 3.02-2.89c1.08-1.27 1.64-2.04 2.36-3.41.73-1.38 1.01-2.15 1.26-3.47s.22-2.02-.02-3.12-.56-1.64-1.16-2.41c-.61-.77-1.12-1.11-1.87-1.46-.75-.33-1.31-.4-1.9-.21-.6.18-.96.6-1.05 1.15-.09.54.02 1.04.6 1.56.59.51 1.13.76 2.34 1 1.22.24 2.04.27 3.74.2 1.71-.06 2.74-.23 4.76-.52 2.03-.29 3.24-.53 5.4-.95 2.15-.42 3.38-.69 5.38-1.15 1.99-.45 3.13-.77 4.6-1.1 1.47-.34 2.12-.54 2.76-.59s.69-.06.44.35-.74.72-1.69 1.68c-.95.95-1.76 1.71-3.06 3.11s-2.15 2.36-3.41 3.88c-1.26 1.53-2.04 2.38-2.9 3.74-.87 1.36-1.26 2.06-1.42 3.08-.17 1 0 1.49.61 1.97.61.49 1.18.6 2.42.44s2.1-.49 3.77-1.25c1.66-.75 2.69-1.43 4.56-2.54 1.88-1.13 3.05-1.94 4.82-3.06 1.75-1.11 2.74-1.75 3.97-2.52 1.22-.76 1.68-1.08 2.16-1.31s.45-.19.24.14c-.21.35-.7.72-1.27 1.55-.58.83-1.1 1.5-1.61 2.62-.5 1.12-.75 1.89-.91 2.99s-.2 1.71.12 2.53.63 1.26 1.46 1.6c.84.35 1.47.41 2.71.12s2.01-.67 3.5-1.54c1.49-.88 2.34-1.56 3.94-2.83 1.59-1.26 2.51-2.07 4.05-3.49s2.37-2.25 3.62-3.6c1.27-1.34 1.87-2.03 2.71-3.12s1.17-1.6 1.51-2.34c.34-.75.29-1.07.21-1.39-.1-.31-.45-.37-.67-.19-.23.18-.57.54-.47 1.07.1.52.28 1.02.96 1.53.66.5 1.23.72 2.38.98s1.85.34 3.41.34 2.5-.09 4.41-.33c1.92-.25 3.06-.44 5.17-.87 2.11-.42 3.27-.76 5.38-1.25 2.11-.5 3.27-.76 5.16-1.23 1.89-.49 2.87-.74 4.3-1.16 1.44-.42 2.09-.59 2.87-.98s1.03-.62 1.05-.97c.01-.34-.24-.64-.95-.73-.71-.07-1.35-.07-2.63.34-1.29.4-2.13.81-3.8 1.7-1.67.88-2.7 1.49-4.55 2.71-1.84 1.22-2.93 1.97-4.65 3.4-1.72 1.42-2.63 2.24-3.93 3.72-1.29 1.47-1.92 2.25-2.57 3.64-.67 1.4-.86 2.14-.73 3.34.14 1.2.46 1.82 1.39 2.64.94.82 1.66 1.16 3.28 1.43 1.63.28 2.68.26 4.83-.03s3.47-.64 5.94-1.38c2.48-.73 3.86-1.25 6.47-2.3 2.62-1.04 4.03-1.7 6.58-2.91 2.56-1.21 3.91-1.91 6.21-3.15 2.3-1.23 3.43-1.89 5.31-3 1.89-1.11 2.77-1.65 4.12-2.53 1.36-.88 1.94-1.24 2.67-1.87.71-.65.87-.91.94-1.34.06-.43-.17-.65-.62-.82-.45-.18-.9-.25-1.64-.05-.76.21-1.22.46-2.12 1.05-.91.6-1.38 1.08-2.39 1.94-1.02.85-1.62 1.34-2.68 2.35-1.07 1.02-1.68 1.58-2.65 2.7-.97 1.11-1.48 1.76-2.18 2.88-.7 1.14-1.05 1.73-1.34 2.77-.28 1.06-.35 1.63-.11 2.48.24.84.55 1.31 1.31 1.77.75.46 1.33.61 2.46.54s1.8-.27 3.17-.88c1.37-.59 2.15-1.09 3.65-2.12 1.51-1.03 2.34-1.72 3.87-3.01 1.52-1.3 2.37-2.09 3.75-3.47s2.24-2.21 3.13-3.44c.9-1.23 1.23-1.96 1.36-2.71s-.14-1.05-.74-1.05-1.26.24-2.25 1.02-1.74 1.56-2.64 2.9c-.89 1.34-1.32 2.34-1.83 3.83-.49 1.47-.71 2.29-.65 3.56.05 1.27.21 1.93.91 2.8.7.86 1.29 1.26 2.6 1.56s2.2.25 3.93-.07c1.74-.33 2.72-.72 4.77-1.57 2.04-.85 3.24-1.48 5.43-2.69 2.2-1.2 3.39-2 5.57-3.37 2.18-1.36 3.3-2.15 5.3-3.45 2-1.29 3.02-1.96 4.69-2.99 1.67-1.04 2.45-1.51 3.63-2.18s1.65-.91 2.26-1.16c.62-.26.71-.27.85-.11.12.17-.03.37-.21.93-.17.55-.36.97-.65 1.86-.3.9-.44 1.5-.82 2.61-.37 1.1-.55 1.76-1.06 2.94-.51 1.16-.82 1.79-1.51 2.89s-1.14 1.66-1.95 2.61c-.82.95-1.26 1.4-2.12 2.15s-1.34 1.08-2.19 1.6c-.85.51-1.31.67-2.03.97-.71.29-1.07.33-1.55.49s-.67.18-.84.32c-.18.15-.2.3-.05.43.16.14.29.25.83.22.55-.02.91-.14 1.9-.37s1.62-.43 3.05-.79 2.31-.56 4.13-1.04c1.81-.47 2.85-.74 4.94-1.36 2.08-.62 3.23-.97 5.45-1.73s3.42-1.19 5.65-2.11c2.23-.91 3.42-1.41 5.5-2.44 2.09-1.03 3.14-1.61 4.92-2.71 1.77-1.09 2.62-1.68 3.93-2.78s1.93-1.63 2.65-2.67c.71-1.05.94-1.65.94-2.58s-.27-1.47-.96-2.06c-.7-.58-1.31-.81-2.54-.86-1.23-.04-2.11.07-3.63.63s-2.44 1.09-3.97 2.15c-1.52 1.05-2.37 1.76-3.63 3.11s-1.93 2.14-2.64 3.63c-.72 1.51-.99 2.39-.94 3.86.06 1.48.27 2.28 1.2 3.52.94 1.25 1.7 1.86 3.48 2.7 1.78.85 2.99 1.13 5.43 1.51 2.45.38 3.96.42 6.79.4 2.84-.03 4.5-.22 7.39-.52 2.88-.3 4.45-.55 7.07-.98 2.63-.44 4.03-.75 6.06-1.21s2.87-.67 4.1-1.11c1.22-.44 1.5-.73 2-1.07s.44-.46.5-.64c.07-.19.01-.24-.16-.32-.17-.07-.13-.06-.69-.02s-.88.04-2.13.21c-1.24.18-2.06.34-4.09.67s-3.42.59-6.01.97c-2.58.38-4.12.66-6.93.91s-4.44.34-7.14.34-4.15-.06-6.4-.34c-2.26-.28-3.31-.5-4.87-1.05-1.54-.55-2.14-.92-2.87-1.71s-.83-1.25-.78-2.25.32-1.63 1.02-2.76c.69-1.13 1.31-1.79 2.48-2.88 1.16-1.1 1.99-1.71 3.35-2.59 1.36-.89 2.2-1.29 3.44-1.85 1.25-.55 1.9-.7 2.77-.93.85-.24 1.16-.33 1.53-.25.36.08.44.21.29.63-.14.43-.31.79-1.01 1.51-.7.73-1.24 1.2-2.5 2.12-1.25.93-2.07 1.5-3.78 2.5-1.71 1.01-2.73 1.56-4.76 2.53s-3.19 1.45-5.37 2.31-3.36 1.28-5.54 2-3.32 1.05-5.36 1.63c-2.05.57-3.07.81-4.87 1.26-1.8.43-2.66.57-4.13.92-1.46.35-2.14.43-3.19.81s-1.5.57-2.06 1.07c-.56.49-.72.88-.77 1.42-.04.54.15.96.57 1.3s.82.4 1.53.4 1.14-.12 2.03-.41 1.44-.48 2.45-1.06c1-.56 1.56-.96 2.56-1.79.99-.82 1.49-1.32 2.41-2.35.94-1.03 1.44-1.64 2.25-2.84.8-1.2 1.15-1.9 1.77-3.16.61-1.26.87-1.93 1.29-3.13.43-1.21.68-1.82.84-2.9.17-1.09.19-1.68-.01-2.53-.21-.87-.44-1.31-1.02-1.77-.59-.47-.96-.6-1.92-.54-.96.05-1.52.26-2.88.83s-2.17 1.04-3.91 2.03c-1.75.98-2.79 1.65-4.82 2.9-2.04 1.24-3.18 2.02-5.35 3.32-2.17 1.29-3.35 2.04-5.49 3.18-2.14 1.15-3.32 1.72-5.22 2.54-1.9.83-2.8 1.16-4.27 1.58-1.46.43-2.13.53-3.06.54s-1.24-.08-1.59-.5c-.34-.42-.34-.77-.14-1.61.21-.84.51-1.44 1.18-2.57.66-1.13 1.36-1.83 2.16-3.06s1.34-2.05 1.85-3.1c.51-1.04.71-1.63.68-2.11-.04-.49-.23-.6-.85-.31-.61.28-1.14.77-2.21 1.75-1.07.99-1.78 1.89-3.13 3.19-1.36 1.29-2.17 2.08-3.63 3.3-1.46 1.23-2.29 1.85-3.67 2.8-1.39.94-2.13 1.35-3.25 1.96-1.13.61-1.63.8-2.37 1.07-.74.26-1 .31-1.35.25-.34-.06-.41-.16-.39-.55.02-.4.11-.72.49-1.44.37-.72.68-1.22 1.37-2.15.7-.93 1.17-1.52 2.1-2.51s1.51-1.53 2.54-2.44c1.04-.92 1.62-1.38 2.61-2.13 1-.74 1.57-1.03 2.38-1.62.82-.58 1.2-.8 1.68-1.32.48-.51.63-.87.72-1.26.08-.39.05-.63-.29-.69s-.57 0-1.41.39c-.84.38-1.4.75-2.78 1.53-1.39.77-2.27 1.31-4.16 2.34-1.89 1.04-3.01 1.67-5.3 2.84-2.29 1.18-3.63 1.85-6.15 3s-3.92 1.78-6.47 2.76c-2.55.97-3.91 1.43-6.27 2.12-2.37.68-3.64.96-5.58 1.29-1.95.34-2.84.42-4.17.4-1.33 0-1.81-.11-2.47-.47-.65-.35-.82-.6-.8-1.31.02-.7.22-1.19.91-2.23.7-1.04 1.27-1.72 2.54-2.97 1.28-1.25 2.16-2.02 3.83-3.29s2.72-1.98 4.52-3.08c1.79-1.09 2.84-1.57 4.44-2.41 1.59-.84 2.4-1.14 3.51-1.79 1.11-.64 1.57-.91 2.05-1.42s.56-.81.35-1.13c-.22-.31-.53-.45-1.41-.46-.89 0-1.56.17-3.02.44-1.47.29-2.44.55-4.33.96-1.9.42-3.07.65-5.16 1.1-2.1.45-3.26.75-5.32 1.13-2.07.38-3.18.56-4.99.78-1.82.21-2.7.31-4.08.32s-1.95-.07-2.83-.24-1.1-.43-1.53-.6-.36-.17-.63-.26c-.27-.08-.43-.12-.71-.16s-.38-.19-.7-.05c-.32.15-.36.25-.88.78s-.8.95-1.71 1.88-1.51 1.57-2.81 2.79c-1.29 1.22-2.13 2.01-3.67 3.33-1.53 1.31-2.46 2.07-4 3.25s-2.41 1.76-3.71 2.63c-1.3.86-1.94 1.23-2.8 1.72-.87.48-1.16.64-1.51.7-.35.07-.34 0-.24-.38s.34-.71.76-1.49c.42-.79.86-1.36 1.35-2.43s.88-1.82 1.12-2.93c.23-1.12.36-1.85.08-2.64-.29-.79-.6-1.17-1.52-1.33-.91-.17-1.59-.04-3.1.48-1.51.53-2.54 1.15-4.41 2.16-1.88 1-3.07 1.78-4.93 2.86s-2.89 1.64-4.39 2.51c-1.49.88-2.21 1.29-3.08 1.83-.88.53-1.11.8-1.29.86-.18.05-.06-.04.41-.58.48-.54.92-1.06 1.94-2.15 1-1.08 1.79-1.88 3.12-3.3 1.35-1.4 2.32-2.25 3.58-3.75 1.26-1.49 2.02-2.36 2.75-3.72.73-1.35.98-2.04.89-3.02-.09-.99-.4-1.43-1.36-1.88s-1.78-.46-3.43-.36c-1.65.09-2.78.46-4.81.84-2.03.37-3.24.66-5.36 1.03-2.13.37-3.33.59-5.27.84-1.95.25-2.93.33-4.49.4-1.55.06-2.25-.08-3.28-.1-1.04-.02-1.4-.11-1.91-.04s-.56.17-.63.37c-.08.19 0 .39.25.59.25.21.54.23.98.47.45.24.85.3 1.25.74.4.45.63.74.75 1.48s.12 1.25-.17 2.24c-.28 1-.54 1.61-1.24 2.73-.69 1.11-1.23 1.77-2.22 2.82s-1.67 1.6-2.74 2.44c-1.08.84-1.72 1.22-2.63 1.75s-1.33.73-1.91.92c-.58.17-.8.21-.97-.04-.17-.26-.17-.5.12-1.23.29-.74.57-1.31 1.33-2.45s1.41-1.9 2.49-3.23c1.09-1.33 1.93-2.12 2.94-3.4 1-1.28 1.55-2.01 2.07-3.02s.68-1.55.51-2.04c-.18-.49-.53-.62-1.4-.41-.87.2-1.56.61-2.96 1.43-1.4.81-2.25 1.48-4.04 2.66-1.77 1.17-2.86 1.95-4.83 3.22-1.98 1.26-3.11 2-5.04 3.1-1.92 1.12-2.97 1.66-4.6 2.45-1.62.78-2.39 1.11-3.55 1.48s-1.59.44-2.2.35c-.62-.09-.76-.25-.89-.79-.13-.55.02-.99.22-1.92s.51-1.56.79-2.71c.27-1.15.53-1.89.59-3.02.05-1.11.06-1.8-.34-2.57s-.75-1.12-1.65-1.26-1.53 0-2.89.57c-1.35.57-2.22 1.18-3.86 2.26s-2.71 1.9-4.34 3.15c-1.64 1.25-2.54 2-3.85 3.09-1.3 1.08-1.89 1.66-2.68 2.35-.78.7-.99 1-1.25 1.11-.27.1-.21 0-.08-.61s.25-1.18.7-2.47c.44-1.28.75-2.18 1.52-3.98.77-1.79 1.3-2.88 2.33-4.97s1.63-3.28 2.82-5.44c1.19-2.17 1.87-3.36 3.12-5.37 1.25-2.02 1.96-3.05 3.15-4.72 1.2-1.66 1.86-2.41 2.83-3.62s1.45-1.69 2.03-2.45c.57-.77.7-1.06.86-1.39.14-.33.1-.43-.13-.29-.24.14-.37.34-1.04.97-.66.63-1.08 1.15-2.27 2.16-1.2 1.01-1.96 1.65-3.68 2.9-1.72 1.24-2.76 1.94-4.93 3.35-2.17 1.4-3.41 2.18-5.89 3.68-2.49 1.5-3.87 2.28-6.56 3.83-2.68 1.55-4.15 2.33-6.9 3.89-2.74 1.55-4.19 2.35-6.86 3.87-2.65 1.52-4.03 2.24-6.41 3.72-2.4 1.48-3.57 2.24-5.53 3.67-1.98 1.45-2.93 2.15-4.31 3.55-1.39 1.4-1.97 2.13-2.63 3.45-.65 1.33-.78 2.05-.65 3.18s.46 1.71 1.3 2.45c.85.75 1.49 1.01 2.92 1.28 1.42.28 2.33.24 4.19.06 1.87-.19 2.99-.42 5.14-.99 2.15-.56 3.43-.97 5.61-1.84 2.19-.87 3.43-1.41 5.33-2.49 1.89-1.09 2.87-1.7 4.16-2.93 1.3-1.22 1.82-1.91 2.33-3.2.52-1.28.54-1.97.23-3.21-.31-1.22-.73-1.81-1.76-2.92-1.03-1.1-1.85-1.59-3.38-2.56-1.53-.98-2.52-1.41-4.28-2.32-1.75-.91-2.8-1.35-4.48-2.22-1.69-.87-2.63-1.29-3.96-2.11s-1.96-1.19-2.69-2c-.73-.8-.97-1.16-.97-2.01-.01-.85.21-1.27.96-2.24s1.43-1.56 2.77-2.63c1.35-1.05 2.27-1.68 3.93-2.67 1.67-.99 2.69-1.51 4.39-2.28 1.68-.76 2.59-1.12 4.05-1.56 1.47-.44 2.12-.53 3.27-.62 1.14-.08 1.61.1 2.47.2.85.1 1.19.24 1.8.32.61.07.91.2 1.25.03s.57-.45.48-.86"/></g><path d="m490.46 15.26c1.82-4.16 3.87-7.03 5.34-8.81 1.38-1.67 2.64-2.86 4.5-3.28.34-.08 2.45-.55 3.28.28.98.98.55 4.15-5.9 13.96" fill="none" stroke-miterlimit="10" stroke-width="3.2"/><path d="m500.38 3.35c-1.21 1.17-2.45 2.46-3.69 3.89-2.8 3.23-4.97 6.42-6.63 9.3" fill="none" stroke-miterlimit="10" stroke-width="3"/><path d="m497.25 4.74c-1.15 1.17-2.35 2.53-3.53 4.09-2.34 3.08-3.98 6.08-5.12 8.63" fill="none" stroke-width="3"/><path d="m496.64 6.64c1.13-.84 1.96-1.51 2.53-1.99.36-.3.72-.61 1.29-.73.62-.13 1.27.02 1.68.28.97.59 1.38 2.16.82 3.77" fill="none" stroke-miterlimit="10" stroke-width="3"/></g></svg>