<svg viewBox="0 0 495.13 501.24" xmlns="http://www.w3.org/2000/svg" xmlns:xlink="http://www.w3.org/1999/xlink"><linearGradient id="a" gradientUnits="userSpaceOnUse" x1="0" x2="495.13" y1="250.62" y2="250.62"><stop offset="0"/><stop offset=".5" stop-color="#001e1e"/></linearGradient><path d="m307.91 121.51c12.99-2.97 24.66-5.56 36.29-8.31 18.83-4.45 37.91-7.57 57.08-10.03 11.37-1.46 22.43 2.37 33.67 3.21 12.08.9 19.84 7.1 25.88 17 5.9 9.66 12.37 18.97 18 28.83 4.35 7.61 7.2 15.73 9.49 24.11 2.27 8.3.61 10-7.79 8.63-15.51-2.53-30.6-6.73-45.57-11.32-24.45-7.5-49.59-11.58-74.72-15.8-2.2-.37-4.52-.05-8.03-.05 11.23 2.52 21.24 4.85 31.28 7.01 18.03 3.88 34.8 11.36 51.88 17.98 4.86 1.89 6.73 4.72 5.19 10.04-.85 2.94-3.11 7.66.19 8.89 2.25.84 3.16-4.68 4.38-7.46 2.69-6.11 3.95-6.8 10.28-4.78 4.17 1.33 8.01 3.31 11.44 6.03 7.73 6.1 14.74 12.98 21.42 20.21 5.2 5.62 5.14 12.83 5.9 19.72 2.32 20.99-.2 41.89-1.46 62.81-.13 2.24.16 5.24-2.3 6.22-2.64 1.05-4.62-1.3-6.46-2.92-20.75-18.29-41.4-36.68-62.21-54.89-9.9-8.66-20.09-17.01-30.17-25.47-.96-.81-1.72-2.08-3.85-1.85 1.42 3.24 3.76 5.47 6.01 7.77 16.89 17.26 34.51 33.87 50.43 51.99 11.16 12.7 21.38 26.38 30.96 40.43 3.3 4.84 3.61 9.6 1.95 15.14-7.93 26.49-21.66 49.66-39.48 70.59-4.21 4.94-6.86 4.88-10.36-.66-7.03-11.12-10.65-23.69-14.6-36.04-8.37-26.18-17.22-52.23-23.28-79.09-1.41-6.26-2.23-12.65-3.62-18.93-1.07 8.15-.59 16.2 1.08 24.2 5.33 25.45 11.14 50.75 19.57 75.42 5.08 14.87 7.26 30.42 8.87 46.02.57 5.49-1.53 10.35-5.54 13.93-13.65 12.21-26.06 25.76-40.56 37.07-10.97 8.56-23.14 13.68-37.05 14.69-5.99.43-7.27-1.22-5.35-6.84 8.79-25.69 17.76-51.32 22.78-78.11.21-1.12.32-2.26-.17-3.55-1.23 4.34-2.31 8.73-3.7 13.02-4.41 13.63-8.84 27.26-13.45 40.83-3.42 10.09-9.33 18.75-16.16 26.82-2.66 3.15-5.73 5.58-10.19 5.45-1.78-.05-3.18.85-4.4 2.07-1.29 1.3-2.72 2.49-3.85 3.93-8.59 10.93-19.96 13.61-33.08 11.41-3.3-.55-6.62-.61-9.86.64-14.38 5.55-28.72 4.53-43.04-.29-3-1.01-6.01-1.98-9.02-2.94-6.51-2.08-7.2-4.99-2.12-9.83 6.04-5.75 12.73-10.72 19.43-15.69 36.72-27.25 70.15-57.85 96.7-95.41.58-.82 1.14-1.64 1.66-2.49.16-.27.17-.63.45-1.8-3.29 2.1-5.16 4.73-7.21 7.12-17.71 20.6-35.47 41.11-56.78 58.24-23.14 18.61-48.39 33.63-75.44 45.75-4.26 1.91-8.41 4.04-12.63 6.02-4.41 2.07-8.62 1.86-12.81-.83-3.07-1.97-6.23-4.03-9.63-5.24-13.43-4.77-25.01-12.37-35.55-21.81-5.46-4.89-11.41-9.2-17.94-12.65-2.01-1.06-4.74-2.21-4.12-4.96.6-2.63 3.57-2.83 5.81-3.06 10.1-1.08 20.23-1.78 30.32-2.95 21.38-2.47 41.64-9.12 61.25-17.66 25.63-11.15 49.62-25.15 71.28-42.95 8.63-7.09 14.8-16.37 22.92-24.97-3.72-.67-5.34 1.1-6.92 2.69-39.2 39.44-87.34 62.02-140.78 74.45-14.43 3.36-29.11 2.99-43.74.9-1.31-.19-2.65-.48-3.86-1.01-22.57-9.73-42.55-22.33-51.73-46.87-1.75-4.68-3.84-9.23-5.59-13.91-1.01-2.7-3.59-5.67-1.16-8.37 2.6-2.89 5.97-.55 8.89.24 9.49 2.57 19 5.09 28.37 8.04 24.33 7.67 49.15 8.13 74.23 5.56 18.75-1.92 37.46-4.07 55.3-10.68 1.72-.64 3.43-1.3 5.12-2.01.42-.18.76-.56 1.54-1.17-2.09-.84-3.76-.18-5.43.12-25.88 4.71-51.65 10.11-78.2 9.51-26.6-.6-51.78-6.67-75.42-18.89-5.23-2.7-9.64-6.44-13.17-11.27-2.75-3.76-5.56-7.56-8.91-10.76-10.12-9.68-14.16-21.96-15.64-35.33-.78-7.11-1.6-14.26-.73-21.43.63-5.19 2.42-6.25 6.93-3.55 7.43 4.45 14.66 9.24 21.91 13.98 16.73 10.95 33.2 22.44 51.73 30.21 22.93 9.6 47.1 12.97 71.84 12.66.96-.01 1.91-.27 4.15-.6-3.72-2.16-6.77-2.62-9.72-3.06-28.35-4.19-54.98-13.47-79.89-27.51-22.5-12.68-41.04-30.12-57.44-49.86-3.04-3.66-5.21-8.14-7.35-12.45-2.96-5.96-2.94-12.21-.62-18.44 3.91-10.47 8.6-20.6 13.39-30.69 2.08-4.39 5.17-4.74 7.79-.39 12.1 20.17 30.47 34.76 45.8 52.04 10.22 11.52 22.63 20.1 36.36 26.86 7.4 3.65 14.59 7.76 22.71 10-5.71-3.91-11.48-7.74-17.12-11.74-22.52-15.98-40.94-36.06-57.64-57.85-4.05-5.28-8.74-10.07-12.08-15.9-2.51-4.37-4.39-8.94-5.35-13.92-1.1-5.75-2.96-11.28-5.77-16.44-2.26-4.16-2.26-8.43-.11-12.47 6.99-13.13 14.73-25.76 26.04-35.77 4.74-4.19 6.68-3.93 9.17 1.95 5.46 12.88 10.49 25.95 16.02 38.8 10.41 24.18 26.3 44.71 43.43 64.38 6.89 7.91 13.67 15.92 20.51 23.89 1.06 1.24 1.79 2.83 4.92 3.9-3.18-5.18-5.61-9.5-8.38-13.58-9.54-14.07-19.51-27.85-28.74-42.11-13.23-20.44-19.78-43.58-25.73-66.88-2.1-8.23-3.89-16.53-5.75-24.82-1.55-6.9.11-12.7 5.51-17.59 10.86-9.85 19.53-21.9 31.1-31.05 3.29-2.6 6.62-5.08 10.88-5.87 4.98-.92 7.39.54 8.1 5.53 1.22 8.57 3.04 17.18 3.01 25.77-.11 36.42 7.54 71.42 18.22 105.94 2.06 6.66 3.9 13.38 6.25 20.01 1.29-6.4.19-12.65-.92-18.89-3.37-18.85-7.28-37.62-10.08-56.56-3.75-25.36-2.77-50.45 7.19-74.61 1.14-2.75 1.79-5.72 2.55-8.62 1.74-6.63 5.61-11.58 11.45-15.12 14.45-8.77 30.26-13.8 46.73-16.96 5.94-1.14 8.24 1.43 6.37 7.39-3.8 12.08-7.97 24.03-11.93 36.06-7.29 22.15-14.72 44.25-17.93 67.51-1.91 13.87-2.05 27.88-3.6 41.77-.17 1.54-.64 3.77 1.45 4.29 2.23.55 3.1-1.53 3.83-3.21 1.5-3.41 2.07-7.14 2.11-10.73.38-30.92 9.15-59.66 21.66-87.61 7.71-17.24 17.47-33.33 26.26-49.97 3.28-6.21 8.43-7.82 15.12-6.68 22.51 3.84 44.88 8.27 66.75 14.94 7.09 2.16 7.96 4.77 2.51 9.79-11.88 10.95-23.95 21.7-35.97 32.5-23.53 21.15-43.36 45.52-62.39 70.6.31.3.63.6.94.91 2.5-2.65 5-5.3 7.51-7.95 2.63-2.79 5.35-5.5 7.88-8.38 24.09-27.49 52.04-50.08 84.62-66.82 4.89-2.51 9.55-5.45 14.33-8.17 3.52-2 7.31-2.43 11.11-1.16 22.52 7.51 44.52 16.13 63.49 30.93 3.15 2.46 6.44 4.81 9.26 7.61 6.15 6.13 4.88 10.64-3.62 12.44-17.77 3.76-35.59 7.25-53.39 10.84-23.3 4.7-45.48 12.9-67.55 21.45-.41.16-.74.52-2.28 1.64zm-33.74 24.99c-6.31-.22-11.94.64-17.59.74-17.98.33-33.75 4.89-48.38 16.66-14.38 11.57-25.73 24.42-30.01 42.23-6.91 28.7-6.11 57.04 6.2 84.59 7.36 16.48 16.47 30.6 35.88 34.2.48.09.92.38 1.4.54 15.58 5.28 30.84 11.33 47.25 14.34 7.14 1.31 12.3 2.28 18.66-2.3 6.4-4.6 14.26-7.14 21.38-10.77 8.34-4.26 16.32-8.99 22.07-16.77 9.22-12.47 17.76-25.4 26.5-38.2 2.32-3.4.25-4.67-2.17-6.19-5.45-3.44-6.14-5.56-3.94-11.61.97-2.66 2.11-5.27 2.94-7.97 6.34-20.61 2.56-38.32-14.41-52.74-9.23-7.84-18.63-15.81-21.32-28.69-.44-2.12-2.28-3.65-4.13-4.87-12.42-8.23-25.32-14.98-40.33-13.18zm81.69 217.59c3.62-22.92 11.94-44.71 18.81-66.91-10.31 21.09-16.68 43.3-18.81 66.91z" fill="url(#a)"/></svg>