<svg xmlns="http://www.w3.org/2000/svg" id="canvas" viewBox="289.270 192.378 405.147 144.628"><path d="M 323.78,212.06 C 322.97 212.77, 322.65 213.52, 322.17 215.67 C 321.69 217.82, 321.77 219.14, 321.37 222.81 C 320.96 226.49, 320.97 229.00, 320.15 234.05 C 319.33 239.11, 318.71 242.08, 317.27 248.09 C 315.84 254.09, 314.84 257.51, 312.96 264.08 C 311.07 270.64, 309.89 274.29, 307.83 280.91 C 305.77 287.53, 304.61 291.06, 302.65 297.20 C 300.69 303.33, 299.69 306.50, 298.03 311.59 C 296.36 316.68, 295.44 319.03, 294.33 322.64 C 293.22 326.26, 292.84 327.54, 292.48 329.67 C 292.13 331.79, 292.26 332.47, 292.56 333.28 C 292.85 334.09, 293.29 334.21, 293.97 333.70 C 294.66 333.18, 295.13 332.68, 295.99 330.70 C 296.85 328.72, 297.23 327.44, 298.26 323.81 C 299.30 320.17, 299.72 317.69, 301.15 312.53 C 302.57 307.38, 303.52 304.21, 305.39 298.05 C 307.25 291.89, 308.41 288.36, 310.48 281.73 C 312.55 275.10, 313.74 271.46, 315.74 264.90 C 317.74 258.34, 318.78 254.93, 320.49 248.93 C 322.19 242.93, 322.98 239.96, 324.24 234.89 C 325.51 229.83, 326.14 227.35, 326.80 223.59 C 327.46 219.84, 327.68 218.40, 327.56 216.11 C 327.44 213.82, 326.96 212.95, 326.21 212.14 C 325.45 211.33, 324.58 211.36, 323.78 212.06" style="stroke: black; fill: black;"/><path d="M 315.70,217.89 C 316.72 217.63, 317.12 216.73, 318.34 215.54 C 319.55 214.35, 320.07 213.60, 321.76 211.94 C 323.44 210.27, 324.18 208.96, 326.76 207.23 C 329.34 205.50, 331.08 204.63, 334.64 203.30 C 338.20 201.98, 340.42 201.33, 344.56 200.60 C 348.71 199.88, 351.12 199.61, 355.38 199.69 C 359.63 199.77, 362.00 200.05, 365.83 201.00 C 369.66 201.96, 371.61 202.74, 374.53 204.45 C 377.45 206.16, 378.71 207.25, 380.44 209.55 C 382.17 211.85, 382.76 213.08, 383.17 215.95 C 383.58 218.82, 383.56 220.37, 382.49 223.87 C 381.43 227.38, 380.50 229.46, 377.86 233.48 C 375.22 237.50, 373.33 239.80, 369.29 243.96 C 365.25 248.12, 362.60 250.36, 357.65 254.26 C 352.71 258.17, 349.71 260.20, 344.57 263.49 C 339.43 266.78, 336.54 268.39, 331.95 270.72 C 327.36 273.04, 324.92 273.78, 321.62 275.11 C 318.32 276.43, 317.22 276.64, 315.45 277.34 C 313.67 278.03, 313.27 278.07, 312.75 278.59 C 312.23 279.12, 312.16 279.52, 312.85 279.96 C 313.55 280.39, 314.14 280.93, 316.22 280.75 C 318.29 280.58, 319.75 280.49, 323.22 279.09 C 326.69 277.69, 328.97 276.36, 333.58 273.76 C 338.19 271.16, 341.06 269.51, 346.26 266.10 C 351.46 262.69, 354.49 260.67, 359.58 256.72 C 364.66 252.77, 367.40 250.57, 371.69 246.35 C 375.99 242.14, 378.05 239.88, 381.05 235.66 C 384.04 231.43, 385.31 229.28, 386.67 225.21 C 388.04 221.14, 388.36 219.02, 387.88 215.31 C 387.40 211.60, 386.47 209.64, 384.26 206.68 C 382.04 203.72, 380.29 202.48, 376.80 200.50 C 373.32 198.52, 371.12 197.81, 366.85 196.79 C 362.59 195.77, 360.07 195.53, 355.47 195.41 C 350.88 195.28, 348.35 195.55, 343.87 196.18 C 339.39 196.81, 337.11 197.38, 333.08 198.54 C 329.05 199.71, 326.99 200.33, 323.72 202.01 C 320.45 203.69, 318.78 204.83, 316.72 206.94 C 314.66 209.06, 314.11 210.60, 313.41 212.58 C 312.72 214.56, 312.79 215.78, 313.24 216.85 C 313.70 217.91, 314.68 218.15, 315.70 217.89" style="stroke: black; fill: black;"/><path d="M 419.58,209.95 C 418.71 210.12, 418.33 210.22, 417.23 211.66 C 416.13 213.10, 415.62 214.02, 414.07 217.15 C 412.52 220.27, 411.89 222.59, 409.47 227.27 C 407.04 231.96, 405.37 234.92, 401.95 240.57 C 398.54 246.22, 396.33 249.52, 392.38 255.52 C 388.43 261.52, 386.10 264.88, 382.20 270.58 C 378.31 276.29, 376.18 279.29, 372.89 284.04 C 369.59 288.79, 367.70 290.93, 365.74 294.33 C 363.77 297.73, 363.01 299.16, 363.06 301.03 C 363.10 302.90, 364.09 303.69, 365.95 303.66 C 367.81 303.64, 369.37 302.90, 372.36 300.89 C 375.35 298.88, 377.07 296.74, 380.89 293.61 C 384.72 290.48, 387.13 288.33, 391.47 285.22 C 395.81 282.12, 398.45 280.37, 402.59 278.09 C 406.74 275.80, 409.04 274.92, 412.20 273.78 C 415.35 272.64, 416.68 272.47, 418.35 272.38 C 420.03 272.30, 420.29 272.37, 420.57 273.34 C 420.86 274.31, 420.31 275.13, 419.78 277.22 C 419.24 279.31, 418.74 280.90, 417.90 283.79 C 417.06 286.67, 416.34 288.56, 415.59 291.64 C 414.84 294.71, 414.16 296.41, 414.16 299.15 C 414.16 301.89, 414.37 303.40, 415.61 305.35 C 416.85 307.30, 417.93 308.32, 420.37 308.91 C 422.82 309.51, 424.54 309.39, 427.84 308.32 C 431.15 307.25, 432.94 305.88, 436.90 303.58 C 440.85 301.28, 443.17 299.71, 447.61 296.83 C 452.05 293.95, 454.63 292.15, 459.11 289.20 C 463.60 286.24, 466.06 284.54, 470.05 282.06 C 474.03 279.58, 476.16 278.55, 479.06 276.79 C 481.96 275.02, 483.24 274.41, 484.55 273.24 C 485.86 272.06, 485.92 271.44, 485.63 270.92 C 485.33 270.39, 484.48 270.16, 483.08 270.59 C 481.69 271.02, 480.46 271.49, 478.64 273.06 C 476.81 274.63, 475.80 276.03, 473.95 278.42 C 472.10 280.81, 471.05 282.37, 469.38 285.01 C 467.71 287.65, 466.66 289.06, 465.60 291.61 C 464.55 294.16, 464.14 295.55, 464.12 297.78 C 464.10 300.00, 464.42 301.14, 465.50 302.72 C 466.59 304.30, 467.56 305.04, 469.55 305.67 C 471.55 306.30, 472.95 306.38, 475.47 305.88 C 477.99 305.39, 479.54 304.75, 482.13 303.20 C 484.73 301.64, 486.07 300.36, 488.46 298.11 C 490.84 295.85, 492.16 294.53, 494.07 291.93 C 495.99 289.33, 496.96 287.83, 498.05 285.12 C 499.14 282.40, 499.41 280.88, 499.53 278.37 C 499.66 275.87, 499.39 274.60, 498.67 272.60 C 497.95 270.60, 497.19 269.67, 495.94 268.37 C 494.68 267.06, 493.77 266.40, 492.40 266.07 C 491.04 265.73, 489.96 265.93, 489.11 266.69 C 488.26 267.45, 487.83 268.70, 488.14 269.88 C 488.46 271.05, 489.05 271.95, 490.67 272.57 C 492.29 273.19, 493.58 273.47, 496.26 272.98 C 498.94 272.49, 500.54 271.59, 504.07 270.11 C 507.60 268.64, 509.66 267.70, 513.91 265.61 C 518.16 263.52, 520.58 262.31, 525.32 259.66 C 530.05 257.02, 532.67 255.46, 537.59 252.39 C 542.51 249.31, 545.15 247.58, 549.91 244.29 C 554.67 240.99, 557.13 239.15, 561.38 235.91 C 565.63 232.68, 567.67 230.94, 571.16 228.09 C 574.65 225.25, 576.52 224.05, 578.85 221.70 C 581.17 219.35, 582.21 218.00, 582.79 216.36 C 583.38 214.71, 582.88 213.70, 581.78 213.47 C 580.67 213.23, 579.18 213.28, 577.28 215.18 C 575.38 217.08, 574.71 219.09, 572.28 222.95 C 569.85 226.81, 568.29 229.46, 565.14 234.49 C 561.99 239.51, 559.97 242.53, 556.51 248.10 C 553.05 253.66, 551.14 256.78, 547.86 262.31 C 544.58 267.85, 542.89 270.81, 540.10 275.78 C 537.32 280.76, 536.02 283.24, 533.92 287.20 C 531.83 291.16, 530.62 292.80, 529.64 295.58 C 528.65 298.36, 528.69 299.52, 529.00 301.11 C 529.31 302.69, 529.94 303.13, 531.18 303.51 C 532.43 303.88, 533.63 303.81, 535.23 302.97 C 536.83 302.13, 537.89 301.15, 539.19 299.31 C 540.48 297.46, 540.85 295.92, 541.70 293.75 C 542.56 291.58, 542.91 290.31, 543.47 288.45 C 544.03 286.60, 544.21 285.63, 544.52 284.48 C 544.82 283.33, 544.66 282.99, 544.97 282.70 C 545.29 282.41, 545.22 282.71, 546.09 283.03 C 546.95 283.36, 547.49 283.88, 549.28 284.32 C 551.08 284.76, 552.31 285.21, 555.05 285.25 C 557.80 285.28, 559.52 284.98, 563.02 284.50 C 566.52 284.01, 568.54 283.64, 572.55 282.83 C 576.56 282.02, 578.84 281.48, 583.08 280.46 C 587.32 279.43, 589.68 278.79, 593.76 277.71 C 597.84 276.62, 600.04 276.06, 603.48 275.04 C 606.92 274.02, 608.74 273.74, 610.95 272.60 C 613.17 271.47, 613.97 270.61, 614.55 269.35 C 615.12 268.09, 614.87 267.15, 613.83 266.32 C 612.78 265.49, 611.54 264.92, 609.32 265.20 C 607.10 265.47, 605.47 266.08, 602.73 267.71 C 599.99 269.33, 598.49 270.89, 595.62 273.31 C 592.75 275.72, 591.03 277.12, 588.37 279.76 C 585.72 282.41, 584.17 283.80, 582.33 286.53 C 580.48 289.27, 579.68 290.82, 579.17 293.44 C 578.65 296.07, 578.81 297.53, 579.76 299.66 C 580.71 301.79, 581.71 302.88, 583.92 304.10 C 586.13 305.32, 587.81 305.81, 590.81 305.76 C 593.82 305.72, 595.66 305.07, 598.93 303.89 C 602.21 302.71, 604.00 301.72, 607.19 299.85 C 610.38 297.98, 612.08 296.80, 614.86 294.52 C 617.64 292.24, 619.12 290.98, 621.09 288.47 C 623.06 285.96, 623.82 284.48, 624.70 281.98 C 625.58 279.49, 625.62 278.14, 625.49 275.99 C 625.36 273.85, 624.88 272.79, 624.04 271.27 C 623.21 269.75, 622.45 268.85, 621.32 268.38 C 620.19 267.91, 619.09 268.20, 618.39 268.92 C 617.69 269.65, 617.34 270.89, 617.82 271.99 C 618.29 273.08, 618.98 273.75, 620.78 274.41 C 622.59 275.06, 623.95 275.40, 626.85 275.27 C 629.76 275.14, 631.59 274.43, 635.30 273.76 C 639.00 273.09, 641.17 272.68, 645.38 271.92 C 649.60 271.16, 652.01 270.68, 656.37 269.96 C 660.74 269.23, 663.17 268.78, 667.22 268.30 C 671.27 267.82, 673.39 267.69, 676.63 267.57 C 679.86 267.46, 681.34 267.61, 683.39 267.72 C 685.43 267.83, 686.15 267.78, 686.86 268.14 C 687.56 268.50, 687.43 268.64, 686.93 269.52 C 686.43 270.41, 685.71 270.90, 684.33 272.57 C 682.96 274.24, 682.13 275.55, 680.06 277.88 C 677.98 280.20, 676.63 281.72, 673.95 284.19 C 671.27 286.67, 669.60 287.99, 666.66 290.23 C 663.72 292.48, 662.04 293.60, 659.23 295.40 C 656.42 297.19, 654.87 297.83, 652.60 299.20 C 650.32 300.56, 649.33 301.25, 647.86 302.23 C 646.39 303.21, 645.94 303.49, 645.25 304.08 C 644.56 304.67, 644.49 304.76, 644.41 305.17 C 644.34 305.58, 644.70 305.89, 644.87 306.12 C 645.04 306.36, 645.50 306.50, 645.27 306.35 C 645.04 306.20, 644.03 305.37, 643.71 305.37 C 643.38 305.37, 643.42 305.90, 643.64 306.36 C 643.85 306.81, 644.13 307.34, 644.77 307.65 C 645.40 307.95, 645.70 308.03, 646.81 307.89 C 647.91 307.74, 648.50 307.62, 650.28 306.93 C 652.06 306.23, 653.31 305.83, 655.70 304.42 C 658.10 303.00, 659.43 301.88, 662.25 299.87 C 665.07 297.86, 666.73 296.67, 669.79 294.38 C 672.85 292.08, 674.57 290.80, 677.56 288.40 C 680.55 286.00, 682.28 284.80, 684.75 282.37 C 687.23 279.94, 688.61 278.70, 689.94 276.24 C 691.26 273.78, 691.51 272.29, 691.39 270.09 C 691.28 267.89, 690.81 266.75, 689.36 265.24 C 687.91 263.73, 686.74 263.09, 684.13 262.54 C 681.53 261.98, 679.85 262.21, 676.35 262.46 C 672.85 262.71, 670.75 263.17, 666.62 263.79 C 662.48 264.40, 660.06 264.87, 655.67 265.54 C 651.29 266.21, 648.86 266.65, 644.68 267.12 C 640.50 267.59, 638.32 267.88, 634.75 267.89 C 631.19 267.90, 629.47 267.29, 626.86 267.16 C 624.24 267.03, 623.25 266.99, 621.67 267.22 C 620.08 267.46, 619.69 267.63, 618.93 268.35 C 618.17 269.07, 618.03 269.95, 617.88 270.81 C 617.73 271.68, 617.84 272.08, 618.18 272.69 C 618.52 273.29, 619.14 273.13, 619.58 273.83 C 620.01 274.52, 620.39 274.95, 620.37 276.16 C 620.34 277.37, 620.27 278.18, 619.47 279.89 C 618.66 281.60, 618.00 282.66, 616.35 284.72 C 614.71 286.77, 613.65 288.15, 611.25 290.17 C 608.85 292.18, 607.23 293.28, 604.36 294.81 C 601.49 296.34, 599.70 296.96, 596.90 297.80 C 594.11 298.64, 592.60 298.72, 590.40 298.99 C 588.20 299.27, 587.24 299.39, 585.91 299.18 C 584.58 298.97, 584.11 298.80, 583.77 297.94 C 583.43 297.08, 583.54 296.47, 584.22 294.87 C 584.91 293.27, 585.56 292.15, 587.19 289.93 C 588.81 287.72, 589.91 286.13, 592.33 283.80 C 594.75 281.46, 596.44 280.09, 599.29 278.24 C 602.15 276.38, 604.10 275.88, 606.60 274.53 C 609.11 273.17, 610.33 272.66, 611.80 271.47 C 613.28 270.28, 613.73 269.51, 613.98 268.60 C 614.22 267.68, 614.05 267.15, 613.01 266.89 C 611.98 266.63, 611.05 266.66, 608.82 267.31 C 606.59 267.96, 605.12 268.96, 601.86 270.15 C 598.60 271.34, 596.48 272.11, 592.52 273.27 C 588.56 274.43, 586.20 275.05, 582.04 275.96 C 577.88 276.87, 575.62 277.33, 571.72 277.83 C 567.83 278.32, 565.86 278.43, 562.58 278.44 C 559.30 278.45, 557.84 278.04, 555.33 277.88 C 552.83 277.72, 551.91 277.61, 550.06 277.63 C 548.21 277.65, 547.53 277.64, 546.06 277.98 C 544.58 278.32, 543.93 278.55, 542.69 279.31 C 541.44 280.08, 540.92 280.54, 539.84 281.80 C 538.75 283.06, 538.35 283.92, 537.28 285.62 C 536.21 287.32, 535.60 288.40, 534.50 290.31 C 533.41 292.22, 532.56 293.36, 531.81 295.17 C 531.06 296.98, 530.89 298.03, 530.75 299.36 C 530.60 300.69, 530.77 301.39, 531.06 301.83 C 531.35 302.27, 531.54 302.46, 532.20 301.57 C 532.87 300.68, 533.36 299.92, 534.39 297.37 C 535.41 294.82, 535.63 292.84, 537.34 288.82 C 539.04 284.81, 540.28 282.30, 542.90 277.30 C 545.52 272.31, 547.19 269.34, 550.44 263.84 C 553.70 258.34, 555.61 255.25, 559.18 249.80 C 562.74 244.35, 564.82 241.38, 568.27 236.59 C 571.72 231.80, 573.65 229.41, 576.42 225.86 C 579.19 222.31, 580.87 221.14, 582.13 218.83 C 583.40 216.53, 583.17 215.31, 582.74 214.33 C 582.31 213.35, 581.48 213.17, 579.98 213.93 C 578.49 214.69, 577.56 215.88, 575.28 218.13 C 573.00 220.37, 571.80 222.15, 568.60 225.16 C 565.39 228.18, 563.38 229.92, 559.27 233.21 C 555.16 236.49, 552.73 238.32, 548.04 241.58 C 543.35 244.84, 540.71 246.55, 535.81 249.50 C 530.92 252.46, 528.30 253.96, 523.56 256.36 C 518.82 258.76, 516.37 259.89, 512.12 261.51 C 507.86 263.14, 505.71 263.73, 502.27 264.49 C 498.83 265.26, 497.20 264.96, 494.93 265.33 C 492.65 265.70, 492.00 265.83, 490.90 266.35 C 489.80 266.87, 489.73 267.18, 489.43 267.94 C 489.12 268.71, 489.19 269.50, 489.37 270.18 C 489.55 270.87, 489.77 270.95, 490.31 271.37 C 490.86 271.78, 491.41 271.66, 492.07 272.26 C 492.73 272.85, 493.25 273.23, 493.61 274.35 C 493.97 275.46, 494.13 276.19, 493.87 277.84 C 493.60 279.49, 493.27 280.55, 492.28 282.59 C 491.29 284.62, 490.58 285.91, 488.92 288.00 C 487.26 290.10, 486.11 291.32, 483.98 293.07 C 481.86 294.81, 480.41 295.51, 478.31 296.75 C 476.20 297.99, 475.07 298.49, 473.45 299.26 C 471.83 300.03, 471.13 300.33, 470.20 300.59 C 469.28 300.85, 469.03 300.96, 468.84 300.56 C 468.64 300.16, 468.71 299.79, 469.23 298.58 C 469.74 297.36, 470.25 296.42, 471.42 294.51 C 472.59 292.59, 473.38 291.21, 475.10 288.99 C 476.81 286.78, 478.09 285.56, 479.99 283.43 C 481.88 281.31, 483.22 280.36, 484.57 278.38 C 485.92 276.41, 486.44 275.22, 486.73 273.56 C 487.03 271.90, 486.88 270.91, 486.05 270.10 C 485.23 269.29, 484.50 268.99, 482.59 269.51 C 480.69 270.02, 479.47 270.84, 476.53 272.69 C 473.58 274.53, 471.77 276.07, 467.88 278.74 C 463.98 281.42, 461.53 283.12, 457.05 286.05 C 452.57 288.98, 449.97 290.75, 445.48 293.40 C 441.00 296.04, 438.55 297.44, 434.64 299.29 C 430.72 301.14, 428.67 301.66, 425.92 302.65 C 423.17 303.63, 422.21 304.04, 420.89 304.21 C 419.57 304.39, 419.45 304.41, 419.31 303.54 C 419.17 302.67, 419.63 301.89, 420.20 299.87 C 420.77 297.85, 421.27 296.31, 422.16 293.44 C 423.04 290.58, 423.88 288.70, 424.63 285.55 C 425.37 282.40, 426.05 280.54, 425.89 277.70 C 425.74 274.86, 425.32 273.26, 423.87 271.35 C 422.41 269.44, 421.27 268.53, 418.63 268.16 C 415.98 267.80, 414.26 268.22, 410.66 269.51 C 407.06 270.81, 404.93 272.14, 400.64 274.62 C 396.34 277.10, 393.72 278.88, 389.18 281.91 C 384.64 284.93, 381.99 286.85, 377.94 289.75 C 373.89 292.64, 371.56 294.11, 368.93 296.37 C 366.30 298.62, 365.44 299.94, 364.78 301.03 C 364.12 302.12, 364.74 302.73, 365.62 301.81 C 366.51 300.88, 367.25 299.61, 369.22 296.41 C 371.19 293.20, 372.43 290.62, 375.49 285.76 C 378.55 280.91, 380.67 277.88, 384.52 272.15 C 388.37 266.41, 390.71 263.06, 394.74 257.09 C 398.78 251.13, 401.03 247.85, 404.70 242.31 C 408.37 236.77, 410.18 233.87, 413.09 229.38 C 416.01 224.90, 417.52 223.00, 419.26 219.89 C 421.00 216.78, 421.34 215.65, 421.79 213.84 C 422.24 212.02, 421.97 211.59, 421.53 210.82 C 421.09 210.04, 420.44 209.78, 419.58 209.95" style="stroke: black; fill: black;"/></svg>